<?xml version="1.0" encoding="utf-8" standalone="no"?>
<!DOCTYPE svg PUBLIC "-//W3C//DTD SVG 1.1//EN"
  "http://www.w3.org/Graphics/SVG/1.1/DTD/svg11.dtd">
<svg xmlns:xlink="http://www.w3.org/1999/xlink" width="769.964375pt" height="373.226094pt" viewBox="0 0 769.964375 373.226094" xmlns="http://www.w3.org/2000/svg" version="1.1">
 <metadata>
  <rdf:RDF xmlns:dc="http://purl.org/dc/elements/1.1/" xmlns:cc="http://creativecommons.org/ns#" xmlns:rdf="http://www.w3.org/1999/02/22-rdf-syntax-ns#">
   <cc:Work>
    <dc:type rdf:resource="http://purl.org/dc/dcmitype/StillImage"/>
    <dc:date>2026-08-07T17:49:29.576627</dc:date>
    <dc:format>image/svg+xml</dc:format>
    <dc:creator>
     <cc:Agent>
      <dc:title>Matplotlib v3.10.9, https://matplotlib.org/</dc:title>
     </cc:Agent>
    </dc:creator>
   </cc:Work>
  </rdf:RDF>
 </metadata>
 <defs>
  <style type="text/css">*{stroke-linejoin: round; stroke-linecap: butt}</style>
 </defs>
 <g id="figure_1">
  <g id="patch_1">
   <path d="M 0 373.226094 
L 769.964375 373.226094 
L 769.964375 0 
L 0 0 
z
" style="fill: #f7f5ef"/>
  </g>
  <g id="axes_1">
   <g id="patch_2">
    <path d="M 33.604375 336.637656 
L 762.764375 336.637656 
L 762.764375 24.597656 
L 33.604375 24.597656 
z
" style="fill: #fffdf8"/>
   </g>
   <g id="matplotlib.axis_1">
    <g id="xtick_1">
     <g id="line2d_1">
      <defs>
       <path id="mecbdf49abe" d="M 0 0 
L 0 3.5 
" style="stroke: #686d73; stroke-width: 0.8"/>
      </defs>
      <g>
       <use xlink:href="#mecbdf49abe" x="63.416993" y="336.637656" style="fill: #686d73; stroke: #686d73; stroke-width: 0.8"/>
      </g>
     </g>
     <g id="text_1">
      <!-- 0 -->
      <g style="fill: #686d73" transform="translate(60.553868 350.47625) scale(0.09 -0.09)">
       <defs>
        <path id="DejaVuSans-30" d="M 2034 4250 
Q 1547 4250 1301 3770 
Q 1056 3291 1056 2328 
Q 1056 1369 1301 889 
Q 1547 409 2034 409 
Q 2525 409 2770 889 
Q 3016 1369 3016 2328 
Q 3016 3291 2770 3770 
Q 2525 4250 2034 4250 
z
M 2034 4750 
Q 2819 4750 3233 4129 
Q 3647 3509 3647 2328 
Q 3647 1150 3233 529 
Q 2819 -91 2034 -91 
Q 1250 -91 836 529 
Q 422 1150 422 2328 
Q 422 3509 836 4129 
Q 1250 4750 2034 4750 
z
" transform="scale(0.015625)"/>
       </defs>
       <use xlink:href="#DejaVuSans-30"/>
      </g>
     </g>
    </g>
    <g id="xtick_2">
     <g id="line2d_2">
      <g>
       <use xlink:href="#mecbdf49abe" x="146.692461" y="336.637656" style="fill: #686d73; stroke: #686d73; stroke-width: 0.8"/>
      </g>
     </g>
     <g id="text_2">
      <!-- 250 -->
      <g style="fill: #686d73" transform="translate(138.103086 350.47625) scale(0.09 -0.09)">
       <defs>
        <path id="DejaVuSans-32" d="M 1228 531 
L 3431 531 
L 3431 0 
L 469 0 
L 469 531 
Q 828 903 1448 1529 
Q 2069 2156 2228 2338 
Q 2531 2678 2651 2914 
Q 2772 3150 2772 3378 
Q 2772 3750 2511 3984 
Q 2250 4219 1831 4219 
Q 1534 4219 1204 4116 
Q 875 4013 500 3803 
L 500 4441 
Q 881 4594 1212 4672 
Q 1544 4750 1819 4750 
Q 2544 4750 2975 4387 
Q 3406 4025 3406 3419 
Q 3406 3131 3298 2873 
Q 3191 2616 2906 2266 
Q 2828 2175 2409 1742 
Q 1991 1309 1228 531 
z
" transform="scale(0.015625)"/>
        <path id="DejaVuSans-35" d="M 691 4666 
L 3169 4666 
L 3169 4134 
L 1269 4134 
L 1269 2991 
Q 1406 3038 1543 3061 
Q 1681 3084 1819 3084 
Q 2600 3084 3056 2656 
Q 3513 2228 3513 1497 
Q 3513 744 3044 326 
Q 2575 -91 1722 -91 
Q 1428 -91 1123 -41 
Q 819 9 494 109 
L 494 744 
Q 775 591 1075 516 
Q 1375 441 1709 441 
Q 2250 441 2565 725 
Q 2881 1009 2881 1497 
Q 2881 1984 2565 2268 
Q 2250 2553 1709 2553 
Q 1456 2553 1204 2497 
Q 953 2441 691 2322 
L 691 4666 
z
" transform="scale(0.015625)"/>
       </defs>
       <use xlink:href="#DejaVuSans-32"/>
       <use xlink:href="#DejaVuSans-35" transform="translate(63.623047 0)"/>
       <use xlink:href="#DejaVuSans-30" transform="translate(127.246094 0)"/>
      </g>
     </g>
    </g>
    <g id="xtick_3">
     <g id="line2d_3">
      <g>
       <use xlink:href="#mecbdf49abe" x="229.967929" y="336.637656" style="fill: #686d73; stroke: #686d73; stroke-width: 0.8"/>
      </g>
     </g>
     <g id="text_3">
      <!-- 500 -->
      <g style="fill: #686d73" transform="translate(221.378554 350.47625) scale(0.09 -0.09)">
       <use xlink:href="#DejaVuSans-35"/>
       <use xlink:href="#DejaVuSans-30" transform="translate(63.623047 0)"/>
       <use xlink:href="#DejaVuSans-30" transform="translate(127.246094 0)"/>
      </g>
     </g>
    </g>
    <g id="xtick_4">
     <g id="line2d_4">
      <g>
       <use xlink:href="#mecbdf49abe" x="313.243397" y="336.637656" style="fill: #686d73; stroke: #686d73; stroke-width: 0.8"/>
      </g>
     </g>
     <g id="text_4">
      <!-- 750 -->
      <g style="fill: #686d73" transform="translate(304.654022 350.47625) scale(0.09 -0.09)">
       <defs>
        <path id="DejaVuSans-37" d="M 525 4666 
L 3525 4666 
L 3525 4397 
L 1831 0 
L 1172 0 
L 2766 4134 
L 525 4134 
L 525 4666 
z
" transform="scale(0.015625)"/>
       </defs>
       <use xlink:href="#DejaVuSans-37"/>
       <use xlink:href="#DejaVuSans-35" transform="translate(63.623047 0)"/>
       <use xlink:href="#DejaVuSans-30" transform="translate(127.246094 0)"/>
      </g>
     </g>
    </g>
    <g id="xtick_5">
     <g id="line2d_5">
      <g>
       <use xlink:href="#mecbdf49abe" x="396.518866" y="336.637656" style="fill: #686d73; stroke: #686d73; stroke-width: 0.8"/>
      </g>
     </g>
     <g id="text_5">
      <!-- 1000 -->
      <g style="fill: #686d73" transform="translate(385.066366 350.47625) scale(0.09 -0.09)">
       <defs>
        <path id="DejaVuSans-31" d="M 794 531 
L 1825 531 
L 1825 4091 
L 703 3866 
L 703 4441 
L 1819 4666 
L 2450 4666 
L 2450 531 
L 3481 531 
L 3481 0 
L 794 0 
L 794 531 
z
" transform="scale(0.015625)"/>
       </defs>
       <use xlink:href="#DejaVuSans-31"/>
       <use xlink:href="#DejaVuSans-30" transform="translate(63.623047 0)"/>
       <use xlink:href="#DejaVuSans-30" transform="translate(127.246094 0)"/>
       <use xlink:href="#DejaVuSans-30" transform="translate(190.869141 0)"/>
      </g>
     </g>
    </g>
    <g id="xtick_6">
     <g id="line2d_6">
      <g>
       <use xlink:href="#mecbdf49abe" x="479.794334" y="336.637656" style="fill: #686d73; stroke: #686d73; stroke-width: 0.8"/>
      </g>
     </g>
     <g id="text_6">
      <!-- 1250 -->
      <g style="fill: #686d73" transform="translate(468.341834 350.47625) scale(0.09 -0.09)">
       <use xlink:href="#DejaVuSans-31"/>
       <use xlink:href="#DejaVuSans-32" transform="translate(63.623047 0)"/>
       <use xlink:href="#DejaVuSans-35" transform="translate(127.246094 0)"/>
       <use xlink:href="#DejaVuSans-30" transform="translate(190.869141 0)"/>
      </g>
     </g>
    </g>
    <g id="xtick_7">
     <g id="line2d_7">
      <g>
       <use xlink:href="#mecbdf49abe" x="563.069802" y="336.637656" style="fill: #686d73; stroke: #686d73; stroke-width: 0.8"/>
      </g>
     </g>
     <g id="text_7">
      <!-- 1500 -->
      <g style="fill: #686d73" transform="translate(551.617302 350.47625) scale(0.09 -0.09)">
       <use xlink:href="#DejaVuSans-31"/>
       <use xlink:href="#DejaVuSans-35" transform="translate(63.623047 0)"/>
       <use xlink:href="#DejaVuSans-30" transform="translate(127.246094 0)"/>
       <use xlink:href="#DejaVuSans-30" transform="translate(190.869141 0)"/>
      </g>
     </g>
    </g>
    <g id="xtick_8">
     <g id="line2d_8">
      <g>
       <use xlink:href="#mecbdf49abe" x="646.34527" y="336.637656" style="fill: #686d73; stroke: #686d73; stroke-width: 0.8"/>
      </g>
     </g>
     <g id="text_8">
      <!-- 1750 -->
      <g style="fill: #686d73" transform="translate(634.89277 350.47625) scale(0.09 -0.09)">
       <use xlink:href="#DejaVuSans-31"/>
       <use xlink:href="#DejaVuSans-37" transform="translate(63.623047 0)"/>
       <use xlink:href="#DejaVuSans-35" transform="translate(127.246094 0)"/>
       <use xlink:href="#DejaVuSans-30" transform="translate(190.869141 0)"/>
      </g>
     </g>
    </g>
    <g id="xtick_9">
     <g id="line2d_9">
      <g>
       <use xlink:href="#mecbdf49abe" x="729.620739" y="336.637656" style="fill: #686d73; stroke: #686d73; stroke-width: 0.8"/>
      </g>
     </g>
     <g id="text_9">
      <!-- 2000 -->
      <g style="fill: #686d73" transform="translate(718.168239 350.47625) scale(0.09 -0.09)">
       <use xlink:href="#DejaVuSans-32"/>
       <use xlink:href="#DejaVuSans-30" transform="translate(63.623047 0)"/>
       <use xlink:href="#DejaVuSans-30" transform="translate(127.246094 0)"/>
       <use xlink:href="#DejaVuSans-30" transform="translate(190.869141 0)"/>
      </g>
     </g>
    </g>
    <g id="text_10">
     <!-- step -->
     <g style="fill: #686d73" transform="translate(387.36875 363.946406) scale(0.1 -0.1)">
      <defs>
       <path id="DejaVuSans-73" d="M 2834 3397 
L 2834 2853 
Q 2591 2978 2328 3040 
Q 2066 3103 1784 3103 
Q 1356 3103 1142 2972 
Q 928 2841 928 2578 
Q 928 2378 1081 2264 
Q 1234 2150 1697 2047 
L 1894 2003 
Q 2506 1872 2764 1633 
Q 3022 1394 3022 966 
Q 3022 478 2636 193 
Q 2250 -91 1575 -91 
Q 1294 -91 989 -36 
Q 684 19 347 128 
L 347 722 
Q 666 556 975 473 
Q 1284 391 1588 391 
Q 1994 391 2212 530 
Q 2431 669 2431 922 
Q 2431 1156 2273 1281 
Q 2116 1406 1581 1522 
L 1381 1569 
Q 847 1681 609 1914 
Q 372 2147 372 2553 
Q 372 3047 722 3315 
Q 1072 3584 1716 3584 
Q 2034 3584 2315 3537 
Q 2597 3491 2834 3397 
z
" transform="scale(0.015625)"/>
       <path id="DejaVuSans-74" d="M 1172 4494 
L 1172 3500 
L 2356 3500 
L 2356 3053 
L 1172 3053 
L 1172 1153 
Q 1172 725 1289 603 
Q 1406 481 1766 481 
L 2356 481 
L 2356 0 
L 1766 0 
Q 1100 0 847 248 
Q 594 497 594 1153 
L 594 3053 
L 172 3053 
L 172 3500 
L 594 3500 
L 594 4494 
L 1172 4494 
z
" transform="scale(0.015625)"/>
       <path id="DejaVuSans-65" d="M 3597 1894 
L 3597 1613 
L 953 1613 
Q 991 1019 1311 708 
Q 1631 397 2203 397 
Q 2534 397 2845 478 
Q 3156 559 3463 722 
L 3463 178 
Q 3153 47 2828 -22 
Q 2503 -91 2169 -91 
Q 1331 -91 842 396 
Q 353 884 353 1716 
Q 353 2575 817 3079 
Q 1281 3584 2069 3584 
Q 2775 3584 3186 3129 
Q 3597 2675 3597 1894 
z
M 3022 2063 
Q 3016 2534 2758 2815 
Q 2500 3097 2075 3097 
Q 1594 3097 1305 2825 
Q 1016 2553 972 2059 
L 3022 2063 
z
" transform="scale(0.015625)"/>
       <path id="DejaVuSans-70" d="M 1159 525 
L 1159 -1331 
L 581 -1331 
L 581 3500 
L 1159 3500 
L 1159 2969 
Q 1341 3281 1617 3432 
Q 1894 3584 2278 3584 
Q 2916 3584 3314 3078 
Q 3713 2572 3713 1747 
Q 3713 922 3314 415 
Q 2916 -91 2278 -91 
Q 1894 -91 1617 61 
Q 1341 213 1159 525 
z
M 3116 1747 
Q 3116 2381 2855 2742 
Q 2594 3103 2138 3103 
Q 1681 3103 1420 2742 
Q 1159 2381 1159 1747 
Q 1159 1113 1420 752 
Q 1681 391 2138 391 
Q 2594 391 2855 752 
Q 3116 1113 3116 1747 
z
" transform="scale(0.015625)"/>
      </defs>
      <use xlink:href="#DejaVuSans-73"/>
      <use xlink:href="#DejaVuSans-74" transform="translate(52.099609 0)"/>
      <use xlink:href="#DejaVuSans-65" transform="translate(91.308594 0)"/>
      <use xlink:href="#DejaVuSans-70" transform="translate(152.832031 0)"/>
     </g>
    </g>
   </g>
   <g id="matplotlib.axis_2">
    <g id="ytick_1">
     <g id="line2d_10">
      <path d="M 33.604375 331.559202 
L 762.764375 331.559202 
" clip-path="url(#pea356d9c4c)" style="fill: none; stroke: #c8c1b6; stroke-opacity: 0.55; stroke-width: 0.7; stroke-linecap: square"/>
     </g>
     <g id="line2d_11">
      <defs>
       <path id="m95ebe504c4" d="M 0 0 
L -3.5 0 
" style="stroke: #686d73; stroke-width: 0.8"/>
      </defs>
      <g>
       <use xlink:href="#m95ebe504c4" x="33.604375" y="331.559202" style="fill: #686d73; stroke: #686d73; stroke-width: 0.8"/>
      </g>
     </g>
     <g id="text_11">
      <!-- 1 -->
      <g style="fill: #686d73" transform="translate(20.878125 334.978499) scale(0.09 -0.09)">
       <use xlink:href="#DejaVuSans-31"/>
      </g>
     </g>
    </g>
    <g id="ytick_2">
     <g id="line2d_12">
      <path d="M 33.604375 289.71434 
L 762.764375 289.71434 
" clip-path="url(#pea356d9c4c)" style="fill: none; stroke: #c8c1b6; stroke-opacity: 0.55; stroke-width: 0.7; stroke-linecap: square"/>
     </g>
     <g id="line2d_13">
      <g>
       <use xlink:href="#m95ebe504c4" x="33.604375" y="289.71434" style="fill: #686d73; stroke: #686d73; stroke-width: 0.8"/>
      </g>
     </g>
     <g id="text_12">
      <!-- 2 -->
      <g style="fill: #686d73" transform="translate(20.878125 293.133637) scale(0.09 -0.09)">
       <use xlink:href="#DejaVuSans-32"/>
      </g>
     </g>
    </g>
    <g id="ytick_3">
     <g id="line2d_14">
      <path d="M 33.604375 247.869479 
L 762.764375 247.869479 
" clip-path="url(#pea356d9c4c)" style="fill: none; stroke: #c8c1b6; stroke-opacity: 0.55; stroke-width: 0.7; stroke-linecap: square"/>
     </g>
     <g id="line2d_15">
      <g>
       <use xlink:href="#m95ebe504c4" x="33.604375" y="247.869479" style="fill: #686d73; stroke: #686d73; stroke-width: 0.8"/>
      </g>
     </g>
     <g id="text_13">
      <!-- 3 -->
      <g style="fill: #686d73" transform="translate(20.878125 251.288776) scale(0.09 -0.09)">
       <defs>
        <path id="DejaVuSans-33" d="M 2597 2516 
Q 3050 2419 3304 2112 
Q 3559 1806 3559 1356 
Q 3559 666 3084 287 
Q 2609 -91 1734 -91 
Q 1441 -91 1130 -33 
Q 819 25 488 141 
L 488 750 
Q 750 597 1062 519 
Q 1375 441 1716 441 
Q 2309 441 2620 675 
Q 2931 909 2931 1356 
Q 2931 1769 2642 2001 
Q 2353 2234 1838 2234 
L 1294 2234 
L 1294 2753 
L 1863 2753 
Q 2328 2753 2575 2939 
Q 2822 3125 2822 3475 
Q 2822 3834 2567 4026 
Q 2313 4219 1838 4219 
Q 1578 4219 1281 4162 
Q 984 4106 628 3988 
L 628 4550 
Q 988 4650 1302 4700 
Q 1616 4750 1894 4750 
Q 2613 4750 3031 4423 
Q 3450 4097 3450 3541 
Q 3450 3153 3228 2886 
Q 3006 2619 2597 2516 
z
" transform="scale(0.015625)"/>
       </defs>
       <use xlink:href="#DejaVuSans-33"/>
      </g>
     </g>
    </g>
    <g id="ytick_4">
     <g id="line2d_16">
      <path d="M 33.604375 206.024618 
L 762.764375 206.024618 
" clip-path="url(#pea356d9c4c)" style="fill: none; stroke: #c8c1b6; stroke-opacity: 0.55; stroke-width: 0.7; stroke-linecap: square"/>
     </g>
     <g id="line2d_17">
      <g>
       <use xlink:href="#m95ebe504c4" x="33.604375" y="206.024618" style="fill: #686d73; stroke: #686d73; stroke-width: 0.8"/>
      </g>
     </g>
     <g id="text_14">
      <!-- 4 -->
      <g style="fill: #686d73" transform="translate(20.878125 209.443914) scale(0.09 -0.09)">
       <defs>
        <path id="DejaVuSans-34" d="M 2419 4116 
L 825 1625 
L 2419 1625 
L 2419 4116 
z
M 2253 4666 
L 3047 4666 
L 3047 1625 
L 3713 1625 
L 3713 1100 
L 3047 1100 
L 3047 0 
L 2419 0 
L 2419 1100 
L 313 1100 
L 313 1709 
L 2253 4666 
z
" transform="scale(0.015625)"/>
       </defs>
       <use xlink:href="#DejaVuSans-34"/>
      </g>
     </g>
    </g>
    <g id="ytick_5">
     <g id="line2d_18">
      <path d="M 33.604375 164.179756 
L 762.764375 164.179756 
" clip-path="url(#pea356d9c4c)" style="fill: none; stroke: #c8c1b6; stroke-opacity: 0.55; stroke-width: 0.7; stroke-linecap: square"/>
     </g>
     <g id="line2d_19">
      <g>
       <use xlink:href="#m95ebe504c4" x="33.604375" y="164.179756" style="fill: #686d73; stroke: #686d73; stroke-width: 0.8"/>
      </g>
     </g>
     <g id="text_15">
      <!-- 5 -->
      <g style="fill: #686d73" transform="translate(20.878125 167.599053) scale(0.09 -0.09)">
       <use xlink:href="#DejaVuSans-35"/>
      </g>
     </g>
    </g>
    <g id="ytick_6">
     <g id="line2d_20">
      <path d="M 33.604375 122.334895 
L 762.764375 122.334895 
" clip-path="url(#pea356d9c4c)" style="fill: none; stroke: #c8c1b6; stroke-opacity: 0.55; stroke-width: 0.7; stroke-linecap: square"/>
     </g>
     <g id="line2d_21">
      <g>
       <use xlink:href="#m95ebe504c4" x="33.604375" y="122.334895" style="fill: #686d73; stroke: #686d73; stroke-width: 0.8"/>
      </g>
     </g>
     <g id="text_16">
      <!-- 6 -->
      <g style="fill: #686d73" transform="translate(20.878125 125.754192) scale(0.09 -0.09)">
       <defs>
        <path id="DejaVuSans-36" d="M 2113 2584 
Q 1688 2584 1439 2293 
Q 1191 2003 1191 1497 
Q 1191 994 1439 701 
Q 1688 409 2113 409 
Q 2538 409 2786 701 
Q 3034 994 3034 1497 
Q 3034 2003 2786 2293 
Q 2538 2584 2113 2584 
z
M 3366 4563 
L 3366 3988 
Q 3128 4100 2886 4159 
Q 2644 4219 2406 4219 
Q 1781 4219 1451 3797 
Q 1122 3375 1075 2522 
Q 1259 2794 1537 2939 
Q 1816 3084 2150 3084 
Q 2853 3084 3261 2657 
Q 3669 2231 3669 1497 
Q 3669 778 3244 343 
Q 2819 -91 2113 -91 
Q 1303 -91 875 529 
Q 447 1150 447 2328 
Q 447 3434 972 4092 
Q 1497 4750 2381 4750 
Q 2619 4750 2861 4703 
Q 3103 4656 3366 4563 
z
" transform="scale(0.015625)"/>
       </defs>
       <use xlink:href="#DejaVuSans-36"/>
      </g>
     </g>
    </g>
    <g id="ytick_7">
     <g id="line2d_22">
      <path d="M 33.604375 80.490033 
L 762.764375 80.490033 
" clip-path="url(#pea356d9c4c)" style="fill: none; stroke: #c8c1b6; stroke-opacity: 0.55; stroke-width: 0.7; stroke-linecap: square"/>
     </g>
     <g id="line2d_23">
      <g>
       <use xlink:href="#m95ebe504c4" x="33.604375" y="80.490033" style="fill: #686d73; stroke: #686d73; stroke-width: 0.8"/>
      </g>
     </g>
     <g id="text_17">
      <!-- 7 -->
      <g style="fill: #686d73" transform="translate(20.878125 83.90933) scale(0.09 -0.09)">
       <use xlink:href="#DejaVuSans-37"/>
      </g>
     </g>
    </g>
    <g id="ytick_8">
     <g id="line2d_24">
      <path d="M 33.604375 38.645172 
L 762.764375 38.645172 
" clip-path="url(#pea356d9c4c)" style="fill: none; stroke: #c8c1b6; stroke-opacity: 0.55; stroke-width: 0.7; stroke-linecap: square"/>
     </g>
     <g id="line2d_25">
      <g>
       <use xlink:href="#m95ebe504c4" x="33.604375" y="38.645172" style="fill: #686d73; stroke: #686d73; stroke-width: 0.8"/>
      </g>
     </g>
     <g id="text_18">
      <!-- 8 -->
      <g style="fill: #686d73" transform="translate(20.878125 42.064469) scale(0.09 -0.09)">
       <defs>
        <path id="DejaVuSans-38" d="M 2034 2216 
Q 1584 2216 1326 1975 
Q 1069 1734 1069 1313 
Q 1069 891 1326 650 
Q 1584 409 2034 409 
Q 2484 409 2743 651 
Q 3003 894 3003 1313 
Q 3003 1734 2745 1975 
Q 2488 2216 2034 2216 
z
M 1403 2484 
Q 997 2584 770 2862 
Q 544 3141 544 3541 
Q 544 4100 942 4425 
Q 1341 4750 2034 4750 
Q 2731 4750 3128 4425 
Q 3525 4100 3525 3541 
Q 3525 3141 3298 2862 
Q 3072 2584 2669 2484 
Q 3125 2378 3379 2068 
Q 3634 1759 3634 1313 
Q 3634 634 3220 271 
Q 2806 -91 2034 -91 
Q 1263 -91 848 271 
Q 434 634 434 1313 
Q 434 1759 690 2068 
Q 947 2378 1403 2484 
z
M 1172 3481 
Q 1172 3119 1398 2916 
Q 1625 2713 2034 2713 
Q 2441 2713 2670 2916 
Q 2900 3119 2900 3481 
Q 2900 3844 2670 4047 
Q 2441 4250 2034 4250 
Q 1625 4250 1398 4047 
Q 1172 3844 1172 3481 
z
" transform="scale(0.015625)"/>
       </defs>
       <use xlink:href="#DejaVuSans-38"/>
      </g>
     </g>
    </g>
    <g id="text_19">
     <!-- cross-entropy loss -->
     <g style="fill: #686d73" transform="translate(14.798438 225.970781) rotate(-90) scale(0.1 -0.1)">
      <defs>
       <path id="DejaVuSans-63" d="M 3122 3366 
L 3122 2828 
Q 2878 2963 2633 3030 
Q 2388 3097 2138 3097 
Q 1578 3097 1268 2742 
Q 959 2388 959 1747 
Q 959 1106 1268 751 
Q 1578 397 2138 397 
Q 2388 397 2633 464 
Q 2878 531 3122 666 
L 3122 134 
Q 2881 22 2623 -34 
Q 2366 -91 2075 -91 
Q 1284 -91 818 406 
Q 353 903 353 1747 
Q 353 2603 823 3093 
Q 1294 3584 2113 3584 
Q 2378 3584 2631 3529 
Q 2884 3475 3122 3366 
z
" transform="scale(0.015625)"/>
       <path id="DejaVuSans-72" d="M 2631 2963 
Q 2534 3019 2420 3045 
Q 2306 3072 2169 3072 
Q 1681 3072 1420 2755 
Q 1159 2438 1159 1844 
L 1159 0 
L 581 0 
L 581 3500 
L 1159 3500 
L 1159 2956 
Q 1341 3275 1631 3429 
Q 1922 3584 2338 3584 
Q 2397 3584 2469 3576 
Q 2541 3569 2628 3553 
L 2631 2963 
z
" transform="scale(0.015625)"/>
       <path id="DejaVuSans-6f" d="M 1959 3097 
Q 1497 3097 1228 2736 
Q 959 2375 959 1747 
Q 959 1119 1226 758 
Q 1494 397 1959 397 
Q 2419 397 2687 759 
Q 2956 1122 2956 1747 
Q 2956 2369 2687 2733 
Q 2419 3097 1959 3097 
z
M 1959 3584 
Q 2709 3584 3137 3096 
Q 3566 2609 3566 1747 
Q 3566 888 3137 398 
Q 2709 -91 1959 -91 
Q 1206 -91 779 398 
Q 353 888 353 1747 
Q 353 2609 779 3096 
Q 1206 3584 1959 3584 
z
" transform="scale(0.015625)"/>
       <path id="DejaVuSans-2d" d="M 313 2009 
L 1997 2009 
L 1997 1497 
L 313 1497 
L 313 2009 
z
" transform="scale(0.015625)"/>
       <path id="DejaVuSans-6e" d="M 3513 2113 
L 3513 0 
L 2938 0 
L 2938 2094 
Q 2938 2591 2744 2837 
Q 2550 3084 2163 3084 
Q 1697 3084 1428 2787 
Q 1159 2491 1159 1978 
L 1159 0 
L 581 0 
L 581 3500 
L 1159 3500 
L 1159 2956 
Q 1366 3272 1645 3428 
Q 1925 3584 2291 3584 
Q 2894 3584 3203 3211 
Q 3513 2838 3513 2113 
z
" transform="scale(0.015625)"/>
       <path id="DejaVuSans-79" d="M 2059 -325 
Q 1816 -950 1584 -1140 
Q 1353 -1331 966 -1331 
L 506 -1331 
L 506 -850 
L 844 -850 
Q 1081 -850 1212 -737 
Q 1344 -625 1503 -206 
L 1606 56 
L 191 3500 
L 800 3500 
L 1894 763 
L 2988 3500 
L 3597 3500 
L 2059 -325 
z
" transform="scale(0.015625)"/>
       <path id="DejaVuSans-20" transform="scale(0.015625)"/>
       <path id="DejaVuSans-6c" d="M 603 4863 
L 1178 4863 
L 1178 0 
L 603 0 
L 603 4863 
z
" transform="scale(0.015625)"/>
      </defs>
      <use xlink:href="#DejaVuSans-63"/>
      <use xlink:href="#DejaVuSans-72" transform="translate(54.980469 0)"/>
      <use xlink:href="#DejaVuSans-6f" transform="translate(93.84375 0)"/>
      <use xlink:href="#DejaVuSans-73" transform="translate(155.025391 0)"/>
      <use xlink:href="#DejaVuSans-73" transform="translate(207.125 0)"/>
      <use xlink:href="#DejaVuSans-2d" transform="translate(259.224609 0)"/>
      <use xlink:href="#DejaVuSans-65" transform="translate(295.308594 0)"/>
      <use xlink:href="#DejaVuSans-6e" transform="translate(356.832031 0)"/>
      <use xlink:href="#DejaVuSans-74" transform="translate(420.210938 0)"/>
      <use xlink:href="#DejaVuSans-72" transform="translate(459.419922 0)"/>
      <use xlink:href="#DejaVuSans-6f" transform="translate(498.283203 0)"/>
      <use xlink:href="#DejaVuSans-70" transform="translate(559.464844 0)"/>
      <use xlink:href="#DejaVuSans-79" transform="translate(622.941406 0)"/>
      <use xlink:href="#DejaVuSans-20" transform="translate(682.121094 0)"/>
      <use xlink:href="#DejaVuSans-6c" transform="translate(713.908203 0)"/>
      <use xlink:href="#DejaVuSans-6f" transform="translate(741.691406 0)"/>
      <use xlink:href="#DejaVuSans-73" transform="translate(802.873047 0)"/>
      <use xlink:href="#DejaVuSans-73" transform="translate(854.972656 0)"/>
     </g>
    </g>
   </g>
   <g id="line2d_26">
    <path d="M 66.748011 66.905361 
L 73.410049 69.387576 
L 76.741068 71.326405 
L 80.072086 74.881088 
L 83.403105 78.82866 
L 90.065142 87.611057 
L 96.72718 97.160232 
L 100.058199 100.987247 
L 103.389217 104.188736 
L 106.720236 106.882122 
L 110.051255 107.809221 
L 116.713292 111.393677 
L 123.37533 114.036231 
L 130.037367 116.884041 
L 133.368386 119.756174 
L 136.699405 121.47176 
L 140.030423 122.417738 
L 143.361442 123.754065 
L 146.692461 124.954828 
L 150.02348 126.283553 
L 160.016536 129.364353 
L 163.347555 130.74553 
L 166.678573 131.78956 
L 170.009592 132.999741 
L 173.340611 133.459468 
L 183.333667 136.960579 
L 186.664686 137.643802 
L 189.995704 138.468581 
L 193.326723 139.019181 
L 196.657742 140.398231 
L 199.988761 141.387989 
L 203.319779 141.613531 
L 206.650798 142.516418 
L 209.981817 143.198281 
L 216.643854 145.137739 
L 223.305892 146.37879 
L 226.63691 147.763769 
L 229.967929 148.092612 
L 239.960985 151.455696 
L 243.292004 152.764385 
L 249.954042 156.929011 
L 263.278116 167.29456 
L 266.609135 169.587283 
L 269.940154 171.181776 
L 273.271173 172.412782 
L 276.602191 174.188938 
L 279.93321 175.658373 
L 286.595248 177.71582 
L 289.926266 178.158151 
L 293.257285 179.560917 
L 296.588304 181.258861 
L 303.250341 182.720917 
L 306.58136 184.189095 
L 309.912379 185.919632 
L 313.243397 188.281393 
L 319.905435 191.701346 
L 326.567472 195.718096 
L 329.898491 197.474587 
L 333.22951 199.051054 
L 339.891547 201.987121 
L 343.222566 202.951769 
L 349.884603 206.291272 
L 356.546641 209.060197 
L 359.87766 210.939926 
L 363.208678 211.657208 
L 366.539697 212.7244 
L 379.863772 216.51273 
L 383.194791 217.70856 
L 386.525809 218.455901 
L 389.856828 219.715766 
L 393.187847 220.6493 
L 396.518866 221.408435 
L 403.180903 223.323211 
L 406.511922 223.549754 
L 409.842941 224.935318 
L 413.173959 226.099317 
L 416.504978 226.954735 
L 419.835997 228.345164 
L 423.167015 228.945435 
L 426.498034 229.851692 
L 429.829053 231.13 
L 433.160072 232.618352 
L 436.49109 232.691245 
L 439.822109 233.484964 
L 443.153128 233.654874 
L 446.484147 234.742598 
L 449.815165 235.255456 
L 453.146184 236.074031 
L 456.477203 236.621544 
L 459.808222 238.135627 
L 463.13924 239.27793 
L 466.470259 240.72101 
L 469.801278 242.637197 
L 473.132296 244.767979 
L 476.463315 246.062313 
L 479.794334 248.408437 
L 486.456371 253.682894 
L 489.78739 256.329166 
L 493.118409 257.723225 
L 496.449428 259.745692 
L 499.780446 261.911112 
L 503.111465 263.013822 
L 509.773502 265.640581 
L 513.104521 266.357355 
L 519.766559 268.219786 
L 523.097577 269.671988 
L 529.759615 271.410477 
L 533.090634 272.108728 
L 536.421652 273.001507 
L 539.752671 274.50526 
L 543.08369 275.244566 
L 546.414708 275.678971 
L 549.745727 277.195174 
L 553.076746 278.499043 
L 563.069802 281.983797 
L 566.400821 283.257689 
L 569.73184 284.273133 
L 573.062858 284.691478 
L 579.724896 285.902615 
L 583.055915 286.743619 
L 586.386933 286.578894 
L 589.717952 286.914943 
L 593.048971 287.672458 
L 596.379989 288.599865 
L 599.711008 289.673744 
L 603.042027 289.947308 
L 606.373046 290.541748 
L 609.704064 292.049301 
L 616.366102 294.105999 
L 623.028139 296.739169 
L 629.690177 300.436937 
L 633.021195 302.02431 
L 639.683233 305.484004 
L 643.014252 306.418166 
L 646.34527 307.838395 
L 649.676289 308.876156 
L 653.007308 309.592762 
L 659.669345 311.869171 
L 663.000364 311.966539 
L 666.331383 312.926391 
L 669.662401 313.368306 
L 672.99342 314.493586 
L 676.324439 314.999826 
L 682.986476 315.177874 
L 689.648514 316.751275 
L 696.310551 317.119587 
L 699.64157 318.254979 
L 702.972589 319.118559 
L 709.634626 320.62496 
L 712.965645 320.943025 
L 716.296664 321.890146 
L 719.627682 322.166253 
L 722.958701 322.07952 
L 729.620739 322.45402 
L 729.620739 322.45402 
" clip-path="url(#pea356d9c4c)" style="fill: none; stroke-dasharray: 5.55,2.4; stroke-dashoffset: 0; stroke: #b67524; stroke-opacity: 0.72; stroke-width: 1.5"/>
   </g>
   <g id="line2d_27">
    <path d="M 66.748011 66.756871 
L 70.07903 68.195516 
L 73.410049 68.662041 
L 76.741068 70.853063 
L 80.072086 74.204085 
L 83.403105 78.224758 
L 93.396161 91.45411 
L 96.72718 96.83901 
L 103.389217 103.838811 
L 106.720236 106.71973 
L 110.051255 108.496496 
L 113.382274 110.607075 
L 116.713292 112.354012 
L 120.044311 113.671718 
L 123.37533 115.335147 
L 126.706349 116.504251 
L 130.037367 117.835964 
L 133.368386 119.804081 
L 136.699405 121.347298 
L 140.030423 122.190513 
L 143.361442 123.588536 
L 146.692461 124.823065 
L 150.02348 126.260462 
L 153.354498 127.29154 
L 156.685517 128.54272 
L 160.016536 129.641517 
L 163.347555 131.078296 
L 170.009592 133.315008 
L 173.340611 133.927179 
L 176.671629 134.750054 
L 180.002648 135.846822 
L 183.333667 136.724146 
L 186.664686 137.71815 
L 189.995704 138.545888 
L 193.326723 139.222511 
L 199.988761 141.357164 
L 203.319779 141.574952 
L 206.650798 142.507949 
L 209.981817 143.324884 
L 213.312835 144.386198 
L 216.643854 145.184456 
L 219.974873 146.298417 
L 223.305892 147.104828 
L 226.63691 148.529 
L 229.967929 148.823837 
L 233.298948 149.283727 
L 236.629967 150.157081 
L 243.292004 152.934162 
L 246.623023 154.819158 
L 249.954042 156.544048 
L 253.28506 159.408789 
L 256.616079 162.435697 
L 259.947098 164.792536 
L 263.278116 167.304672 
L 266.609135 169.26217 
L 273.271173 172.856333 
L 279.93321 175.331212 
L 283.264229 176.7263 
L 286.595248 177.645512 
L 289.926266 178.405669 
L 299.919322 181.910423 
L 303.250341 182.558374 
L 309.912379 184.50437 
L 313.243397 185.809075 
L 316.574416 186.452829 
L 319.905435 186.976237 
L 326.567472 188.369991 
L 329.898491 188.647538 
L 333.22951 189.239323 
L 343.222566 190.385949 
L 356.546641 192.862757 
L 376.532753 196.12159 
L 379.863772 196.453389 
L 383.194791 196.976837 
L 386.525809 197.287733 
L 389.856828 197.180418 
L 396.518866 196.731093 
L 399.849884 196.263088 
L 403.180903 196.001337 
L 409.842941 195.151075 
L 426.498034 193.490994 
L 429.829053 193.050427 
L 433.160072 192.481289 
L 439.822109 192.091999 
L 443.153128 191.609592 
L 446.484147 191.471209 
L 449.815165 191.007343 
L 453.146184 190.984452 
L 456.477203 190.815795 
L 466.470259 188.907608 
L 473.132296 187.442294 
L 479.794334 185.544315 
L 486.456371 183.374813 
L 489.78739 182.074613 
L 493.118409 181.880179 
L 499.780446 180.544448 
L 503.111465 180.090212 
L 506.442484 179.783063 
L 509.773502 179.101753 
L 513.104521 178.714607 
L 516.43554 178.106444 
L 519.766559 177.375555 
L 523.097577 176.990475 
L 526.428596 176.968704 
L 533.090634 175.584781 
L 536.421652 175.594588 
L 539.752671 173.980288 
L 543.08369 173.440768 
L 546.414708 171.929289 
L 549.745727 170.15231 
L 553.076746 168.652035 
L 556.407765 167.638612 
L 559.738783 165.549523 
L 569.73184 161.032349 
L 573.062858 160.15761 
L 576.393877 159.147463 
L 579.724896 157.813834 
L 583.055915 157.169114 
L 586.386933 156.954318 
L 589.717952 156.306927 
L 593.048971 155.212926 
L 596.379989 154.00034 
L 599.711008 153.01658 
L 603.042027 152.624995 
L 606.373046 151.968872 
L 609.704064 150.746094 
L 616.366102 148.908333 
L 623.028139 146.229245 
L 626.359158 144.629191 
L 629.690177 143.292789 
L 633.021195 142.370881 
L 636.352214 140.817982 
L 639.683233 140.072226 
L 643.014252 139.648608 
L 649.676289 139.011064 
L 653.007308 138.682627 
L 656.338327 137.70569 
L 659.669345 137.191965 
L 663.000364 136.954896 
L 672.99342 134.997492 
L 676.324439 133.898812 
L 679.655458 133.354199 
L 682.986476 132.92926 
L 686.317495 131.90012 
L 692.979533 129.454904 
L 696.310551 127.859424 
L 699.64157 126.118473 
L 702.972589 124.697488 
L 706.303608 122.775368 
L 709.634626 120.628449 
L 712.965645 118.78643 
L 716.296664 116.667645 
L 719.627682 115.014939 
L 722.958701 114.418412 
L 726.28972 113.165949 
L 729.620739 112.046736 
L 729.620739 112.046736 
" clip-path="url(#pea356d9c4c)" style="fill: none; stroke: #b67524; stroke-width: 2.1; stroke-linecap: square"/>
   </g>
   <g id="line2d_28">
    <path d="M 66.748011 66.082352 
L 70.07903 66.883749 
L 73.410049 68.122032 
L 76.741068 70.259118 
L 80.072086 73.857709 
L 83.403105 78.084831 
L 86.734124 83.147895 
L 96.72718 100.126681 
L 103.389217 108.010586 
L 106.720236 111.540396 
L 110.051255 114.432293 
L 113.382274 116.778583 
L 116.713292 118.124442 
L 120.044311 119.315778 
L 123.37533 119.751915 
L 126.706349 122.39281 
L 130.037367 125.413323 
L 133.368386 129.071657 
L 136.699405 131.934497 
L 140.030423 136.971884 
L 143.361442 141.456263 
L 146.692461 148.021704 
L 150.02348 151.48025 
L 153.354498 154.598217 
L 156.685517 156.947747 
L 160.016536 160.082236 
L 163.347555 162.0981 
L 166.678573 164.588637 
L 170.009592 166.808389 
L 176.671629 170.138333 
L 183.333667 174.491468 
L 189.995704 178.109015 
L 193.326723 179.061115 
L 196.657742 181.151462 
L 199.988761 182.786264 
L 203.319779 183.93014 
L 213.312835 187.942833 
L 216.643854 188.788227 
L 219.974873 187.551817 
L 223.305892 188.160739 
L 226.63691 189.532008 
L 229.967929 189.827255 
L 236.629967 192.328073 
L 239.960985 194.439987 
L 243.292004 198.005179 
L 246.623023 200.032673 
L 249.954042 200.837622 
L 253.28506 202.689768 
L 263.278116 206.326512 
L 269.940154 206.953443 
L 273.271173 207.733277 
L 283.264229 211.368444 
L 286.595248 212.220033 
L 289.926266 214.024415 
L 293.257285 214.455216 
L 299.919322 215.177853 
L 306.58136 216.693121 
L 309.912379 218.267919 
L 313.243397 219.237656 
L 316.574416 221.367643 
L 319.905435 224.390763 
L 329.898491 230.734895 
L 333.22951 232.534988 
L 339.891547 237.51634 
L 343.222566 238.672056 
L 346.553585 240.038035 
L 349.884603 241.107989 
L 356.546641 244.293103 
L 359.87766 246.545371 
L 363.208678 248.284246 
L 366.539697 250.694792 
L 369.870716 252.326788 
L 373.201735 254.310601 
L 376.532753 256.156464 
L 379.863772 257.257629 
L 383.194791 258.58958 
L 386.525809 259.531478 
L 389.856828 259.974143 
L 393.187847 260.700109 
L 396.518866 262.061881 
L 399.849884 262.734807 
L 403.180903 264.287416 
L 406.511922 265.226103 
L 409.842941 266.524333 
L 413.173959 268.652273 
L 416.504978 270.98503 
L 419.835997 271.644302 
L 423.167015 272.530633 
L 426.498034 273.011458 
L 429.829053 273.707475 
L 433.160072 275.028989 
L 436.49109 275.884613 
L 439.822109 276.467183 
L 443.153128 276.900713 
L 446.484147 276.832038 
L 449.815165 277.350156 
L 453.146184 277.086786 
L 456.477203 276.990415 
L 459.808222 277.020387 
L 463.13924 277.382292 
L 466.470259 278.239667 
L 469.801278 280.00986 
L 473.132296 281.002766 
L 476.463315 282.228597 
L 479.794334 283.246652 
L 486.456371 285.49061 
L 489.78739 286.422292 
L 496.449428 287.182421 
L 499.780446 287.88299 
L 506.442484 288.829377 
L 509.773502 289.552142 
L 519.766559 292.382256 
L 526.428596 294.490432 
L 533.090634 295.71904 
L 536.421652 296.01678 
L 539.752671 296.069059 
L 543.08369 295.94655 
L 546.414708 296.082992 
L 549.745727 296.412326 
L 553.076746 297.146005 
L 559.738783 298.235306 
L 563.069802 299.195756 
L 566.400821 300.505344 
L 573.062858 301.12729 
L 579.724896 301.667782 
L 583.055915 302.003741 
L 586.386933 302.509339 
L 589.717952 302.792059 
L 596.379989 303.024063 
L 599.711008 303.376747 
L 603.042027 303.374549 
L 606.373046 303.661747 
L 609.704064 303.775792 
L 613.035083 304.08615 
L 616.366102 304.809404 
L 623.028139 305.919711 
L 629.690177 306.754802 
L 633.021195 307.047083 
L 636.352214 307.60368 
L 639.683233 307.889161 
L 643.014252 308.329477 
L 646.34527 308.393779 
L 659.669345 309.973919 
L 672.99342 312.514136 
L 676.324439 313.277634 
L 679.655458 313.76101 
L 686.317495 314.258358 
L 689.648514 314.293813 
L 692.979533 314.076823 
L 696.310551 314.080307 
L 699.64157 314.257613 
L 712.965645 315.745789 
L 716.296664 316.511124 
L 719.627682 316.739285 
L 722.958701 316.816377 
L 726.28972 316.746301 
L 729.620739 316.559827 
L 729.620739 316.559827 
" clip-path="url(#pea356d9c4c)" style="fill: none; stroke-dasharray: 5.55,2.4; stroke-dashoffset: 0; stroke: #c4493d; stroke-opacity: 0.72; stroke-width: 1.5"/>
   </g>
   <g id="line2d_29">
    <path d="M 66.748011 65.873034 
L 70.07903 66.910495 
L 73.410049 68.173588 
L 76.741068 70.377231 
L 80.072086 73.984525 
L 83.403105 78.315299 
L 86.734124 83.375541 
L 93.396161 94.295295 
L 96.72718 98.921018 
L 103.389217 106.906551 
L 106.720236 110.489715 
L 110.051255 112.879963 
L 113.382274 115.698407 
L 116.713292 117.92061 
L 120.044311 120.415452 
L 123.37533 120.864063 
L 126.706349 123.316124 
L 130.037367 126.480669 
L 133.368386 130.643197 
L 136.699405 133.737739 
L 140.030423 137.79505 
L 143.361442 142.205699 
L 146.692461 148.401915 
L 150.02348 152.079308 
L 156.685517 156.718532 
L 160.016536 159.152336 
L 163.347555 160.796629 
L 166.678573 162.598523 
L 170.009592 164.263981 
L 173.340611 165.185002 
L 176.671629 166.717558 
L 186.664686 170.352539 
L 189.995704 171.14926 
L 193.326723 171.635321 
L 196.657742 172.99153 
L 199.988761 174.113297 
L 206.650798 175.944156 
L 209.981817 176.376109 
L 213.312835 176.999598 
L 216.643854 176.57072 
L 219.974873 175.369712 
L 223.305892 175.251615 
L 229.967929 175.769275 
L 236.629967 177.101347 
L 239.960985 178.742128 
L 243.292004 180.543208 
L 249.954042 180.819457 
L 253.28506 180.882322 
L 259.947098 180.409385 
L 263.278116 180.01494 
L 266.609135 179.821175 
L 269.940154 180.051171 
L 273.271173 180.060941 
L 279.93321 180.408816 
L 289.926266 180.681371 
L 293.257285 181.079483 
L 296.588304 181.341377 
L 299.919322 181.238654 
L 303.250341 180.880012 
L 309.912379 180.726081 
L 313.243397 180.44034 
L 316.574416 179.722104 
L 319.905435 178.814643 
L 323.236454 178.177438 
L 326.567472 177.951387 
L 333.22951 176.453567 
L 336.560528 175.62729 
L 339.891547 175.154662 
L 343.222566 175.015094 
L 346.553585 174.720788 
L 349.884603 174.300511 
L 353.215622 174.073889 
L 366.539697 172.532723 
L 369.870716 173.007608 
L 373.201735 172.92961 
L 376.532753 172.611197 
L 379.863772 172.625445 
L 386.525809 172.15833 
L 389.856828 171.5898 
L 393.187847 170.232945 
L 396.518866 169.176432 
L 399.849884 168.816842 
L 403.180903 167.934507 
L 406.511922 167.177856 
L 409.842941 166.539795 
L 413.173959 165.214092 
L 416.504978 164.194191 
L 419.835997 163.747673 
L 423.167015 162.816947 
L 426.498034 162.643054 
L 429.829053 162.150581 
L 433.160072 161.067022 
L 436.49109 160.302053 
L 443.153128 158.502973 
L 446.484147 157.598385 
L 449.815165 155.808627 
L 456.477203 153.854491 
L 459.808222 153.450633 
L 463.13924 153.28777 
L 466.470259 152.862156 
L 473.132296 152.530875 
L 476.463315 152.075322 
L 479.794334 151.988439 
L 483.125353 151.056052 
L 486.456371 149.638754 
L 493.118409 147.734896 
L 496.449428 147.424248 
L 499.780446 146.875227 
L 503.111465 146.509122 
L 509.773502 145.535332 
L 513.104521 144.697767 
L 516.43554 144.081604 
L 523.097577 143.559289 
L 526.428596 142.78332 
L 529.759615 142.915871 
L 533.090634 143.218456 
L 536.421652 143.043891 
L 546.414708 141.416997 
L 549.745727 140.852125 
L 556.407765 138.802029 
L 559.738783 138.141068 
L 563.069802 137.647358 
L 566.400821 136.618531 
L 569.73184 136.198608 
L 573.062858 136.289853 
L 576.393877 136.046735 
L 583.055915 134.618228 
L 589.717952 132.001983 
L 593.048971 130.6777 
L 599.711008 127.581982 
L 603.042027 126.980131 
L 606.373046 126.0011 
L 609.704064 125.495786 
L 613.035083 125.128637 
L 623.028139 124.758793 
L 626.359158 123.623773 
L 633.021195 122.065491 
L 636.352214 120.934284 
L 639.683233 119.446974 
L 646.34527 118.666743 
L 649.676289 118.810336 
L 656.338327 118.495273 
L 663.000364 118.468295 
L 666.331383 117.517669 
L 669.662401 117.068373 
L 672.99342 116.908037 
L 676.324439 116.231941 
L 682.986476 115.831714 
L 689.648514 114.569543 
L 692.979533 113.653263 
L 696.310551 112.287771 
L 699.64157 111.501541 
L 706.303608 109.195639 
L 709.634626 108.383047 
L 712.965645 107.222492 
L 716.296664 106.216015 
L 719.627682 105.577978 
L 722.958701 105.207209 
L 726.28972 104.722028 
L 729.620739 104.526019 
L 729.620739 104.526019 
" clip-path="url(#pea356d9c4c)" style="fill: none; stroke: #c4493d; stroke-width: 2.1; stroke-linecap: square"/>
   </g>
   <g id="line2d_30">
    <path d="M 66.748011 38.781293 
L 70.07903 45.409174 
L 73.410049 50.617775 
L 76.741068 54.989034 
L 83.403105 61.527613 
L 86.734124 81.575923 
L 90.065142 86.490384 
L 96.72718 97.023125 
L 100.058199 101.996679 
L 103.389217 106.230095 
L 106.720236 111.2243 
L 110.051255 115.213768 
L 113.382274 118.622961 
L 120.044311 124.896525 
L 123.37533 127.850294 
L 126.706349 131.126559 
L 130.037367 133.643932 
L 140.030423 142.03962 
L 143.361442 144.17461 
L 146.692461 146.506143 
L 150.02348 148.436249 
L 153.354498 150.606163 
L 156.685517 152.597571 
L 160.016536 153.975267 
L 163.347555 155.499705 
L 166.678573 157.244143 
L 170.009592 158.744232 
L 173.340611 160.494355 
L 183.333667 165.330565 
L 186.664686 166.576789 
L 189.995704 168.008502 
L 193.326723 169.173246 
L 199.988761 171.936055 
L 206.650798 173.416869 
L 209.981817 174.460438 
L 213.312835 175.638733 
L 216.643854 177.154471 
L 219.974873 177.666915 
L 223.305892 178.679784 
L 226.63691 179.880889 
L 229.967929 181.476955 
L 233.298948 182.6611 
L 239.960985 184.559455 
L 243.292004 185.779472 
L 246.623023 186.330582 
L 249.954042 187.42537 
L 259.947098 189.833683 
L 263.278116 190.380004 
L 266.609135 191.199874 
L 269.940154 192.208237 
L 273.271173 192.575062 
L 276.602191 193.463903 
L 279.93321 194.159294 
L 283.264229 194.408181 
L 289.926266 195.06675 
L 293.257285 196.014475 
L 296.588304 196.819829 
L 299.919322 197.20234 
L 303.250341 197.854931 
L 306.58136 199.020155 
L 309.912379 200.304139 
L 313.243397 201.778044 
L 316.574416 202.695538 
L 319.905435 203.996174 
L 323.236454 204.95879 
L 326.567472 206.460033 
L 329.898491 207.592848 
L 333.22951 208.413446 
L 336.560528 209.062456 
L 339.891547 209.865104 
L 343.222566 210.544711 
L 346.553585 211.740795 
L 349.884603 212.486157 
L 353.215622 213.524133 
L 356.546641 214.700872 
L 359.87766 216.303923 
L 363.208678 217.019937 
L 369.870716 219.154073 
L 379.863772 221.874409 
L 386.525809 223.332024 
L 389.856828 224.408125 
L 396.518866 225.460707 
L 403.180903 226.39 
L 406.511922 226.581926 
L 409.842941 227.527237 
L 413.173959 227.976472 
L 416.504978 228.966152 
L 419.835997 230.100328 
L 423.167015 230.894102 
L 426.498034 231.571584 
L 429.829053 232.647739 
L 433.160072 233.519324 
L 436.49109 234.046541 
L 443.153128 234.69169 
L 453.146184 236.453242 
L 456.477203 236.896447 
L 459.808222 237.704865 
L 463.13924 238.876182 
L 466.470259 239.323614 
L 469.801278 240.217279 
L 473.132296 240.920911 
L 476.463315 241.33353 
L 483.125353 242.875003 
L 486.456371 243.497488 
L 489.78739 244.258694 
L 493.118409 244.850117 
L 496.449428 245.80485 
L 499.780446 246.472661 
L 503.111465 246.877231 
L 506.442484 247.485642 
L 509.773502 247.78023 
L 513.104521 248.512311 
L 519.766559 249.250329 
L 523.097577 250.232365 
L 526.428596 251.031931 
L 529.759615 251.121445 
L 533.090634 251.566914 
L 536.421652 251.872313 
L 539.752671 252.390284 
L 543.08369 252.550929 
L 546.414708 252.409514 
L 549.745727 252.423932 
L 553.076746 253.06134 
L 556.407765 253.468938 
L 563.069802 253.825673 
L 566.400821 254.405502 
L 573.062858 254.710808 
L 576.393877 254.903567 
L 579.724896 254.718328 
L 583.055915 255.13659 
L 586.386933 255.409612 
L 589.717952 255.36914 
L 596.379989 255.943882 
L 599.711008 256.385229 
L 609.704064 257.343287 
L 613.035083 257.681777 
L 616.366102 258.334163 
L 619.697121 258.716109 
L 623.028139 258.856123 
L 626.359158 259.357642 
L 629.690177 259.49005 
L 633.021195 259.49792 
L 636.352214 259.784455 
L 643.014252 259.839278 
L 649.676289 260.367072 
L 656.338327 260.562509 
L 659.669345 260.929044 
L 663.000364 260.926346 
L 666.331383 261.043849 
L 669.662401 260.698579 
L 672.99342 260.929038 
L 679.655458 260.996621 
L 682.986476 260.589745 
L 692.979533 260.335388 
L 696.310551 260.029312 
L 699.64157 260.008221 
L 712.965645 259.014859 
L 716.296664 259.396056 
L 726.28972 259.243467 
L 729.620739 259.572139 
L 729.620739 259.572139 
" clip-path="url(#pea356d9c4c)" style="fill: none; stroke-dasharray: 5.55,2.4; stroke-dashoffset: 0; stroke: #2d6f9f; stroke-opacity: 0.72; stroke-width: 1.5"/>
   </g>
   <g id="line2d_31">
    <path d="M 66.748011 65.824782 
L 73.410049 68.712523 
L 76.741068 70.031167 
L 80.072086 73.407754 
L 83.403105 75.686308 
L 90.065142 84.900176 
L 93.396161 89.845392 
L 96.72718 95.086355 
L 100.058199 100.576694 
L 103.389217 104.883938 
L 106.720236 110.887763 
L 113.382274 118.929247 
L 120.044311 125.271763 
L 126.706349 131.412185 
L 130.037367 134.103952 
L 143.361442 144.011145 
L 150.02348 148.021177 
L 156.685517 151.726106 
L 163.347555 154.521099 
L 170.009592 156.595974 
L 176.671629 158.738443 
L 180.002648 159.753788 
L 186.664686 161.327872 
L 189.995704 162.298365 
L 196.657742 163.841486 
L 199.988761 164.398782 
L 209.981817 165.775067 
L 213.312835 165.885077 
L 216.643854 166.480755 
L 219.974873 166.554714 
L 223.305892 167.097394 
L 226.63691 167.342855 
L 229.967929 167.868249 
L 233.298948 168.065576 
L 236.629967 168.85872 
L 239.960985 169.215881 
L 243.292004 169.799966 
L 246.623023 170.063035 
L 259.947098 171.992517 
L 266.609135 172.49636 
L 269.940154 172.923399 
L 276.602191 173.466343 
L 279.93321 174.001346 
L 286.595248 174.241258 
L 289.926266 174.530732 
L 293.257285 174.622997 
L 299.919322 175.27332 
L 303.250341 175.281021 
L 313.243397 175.65444 
L 319.905435 176.23026 
L 323.236454 176.266177 
L 326.567472 176.418096 
L 329.898491 176.730072 
L 333.22951 177.387077 
L 336.560528 177.817209 
L 339.891547 178.1227 
L 346.553585 179.057285 
L 349.884603 179.260712 
L 353.215622 179.637651 
L 363.208678 180.190648 
L 369.870716 180.095842 
L 373.201735 180.445761 
L 376.532753 180.31252 
L 379.863772 180.653885 
L 383.194791 180.860275 
L 386.525809 181.29372 
L 389.856828 181.496021 
L 393.187847 181.881622 
L 396.518866 182.12104 
L 399.849884 182.722495 
L 406.511922 182.738079 
L 409.842941 182.625474 
L 413.173959 182.727871 
L 416.504978 182.603842 
L 419.835997 182.677825 
L 433.160072 182.338124 
L 436.49109 181.98814 
L 439.822109 182.022576 
L 443.153128 181.620242 
L 449.815165 181.027156 
L 453.146184 181.045089 
L 456.477203 180.86996 
L 459.808222 180.828319 
L 463.13924 180.625224 
L 466.470259 180.735142 
L 469.801278 180.96013 
L 473.132296 180.934639 
L 476.463315 180.748574 
L 486.456371 180.793724 
L 489.78739 180.666392 
L 493.118409 180.270148 
L 499.780446 180.290852 
L 506.442484 179.808769 
L 509.773502 179.796354 
L 513.104521 179.391187 
L 516.43554 179.273055 
L 526.428596 178.001121 
L 529.759615 177.930597 
L 533.090634 177.724464 
L 536.421652 177.904346 
L 539.752671 177.731847 
L 546.414708 177.938463 
L 549.745727 178.078472 
L 556.407765 177.557514 
L 559.738783 177.423333 
L 563.069802 177.102994 
L 566.400821 176.924451 
L 569.73184 176.940292 
L 573.062858 176.834168 
L 579.724896 176.861465 
L 583.055915 176.528499 
L 586.386933 176.416364 
L 589.717952 176.128107 
L 593.048971 175.622499 
L 603.042027 174.528017 
L 606.373046 174.267469 
L 613.035083 174.226291 
L 619.697121 174.320905 
L 623.028139 174.278282 
L 626.359158 174.356117 
L 629.690177 174.701408 
L 633.021195 174.878158 
L 646.34527 175.009939 
L 649.676289 175.056281 
L 656.338327 174.789227 
L 659.669345 174.739497 
L 663.000364 174.482569 
L 669.662401 174.547834 
L 676.324439 174.359455 
L 682.986476 174.763846 
L 686.317495 175.200179 
L 692.979533 175.594561 
L 699.64157 176.464328 
L 706.303608 176.961 
L 712.965645 177.248038 
L 719.627682 177.591467 
L 729.620739 177.652297 
L 729.620739 177.652297 
" clip-path="url(#pea356d9c4c)" style="fill: none; stroke: #2d6f9f; stroke-width: 2.1; stroke-linecap: square"/>
   </g>
   <g id="line2d_32">
    <path d="M 140.030423 336.637656 
L 140.030423 24.597656 
" clip-path="url(#pea356d9c4c)" style="fill: none; stroke-dasharray: 1.2,1.98; stroke-dashoffset: 0; stroke: #c8c1b6; stroke-width: 1.2"/>
   </g>
   <g id="line2d_33">
    <path d="M 216.643854 336.637656 
L 216.643854 24.597656 
" clip-path="url(#pea356d9c4c)" style="fill: none; stroke-dasharray: 1.2,1.98; stroke-dashoffset: 0; stroke: #c8c1b6; stroke-width: 1.2"/>
   </g>
   <g id="line2d_34">
    <path d="M 289.926266 336.637656 
L 289.926266 24.597656 
" clip-path="url(#pea356d9c4c)" style="fill: none; stroke-dasharray: 1.2,1.98; stroke-dashoffset: 0; stroke: #c8c1b6; stroke-width: 1.2"/>
   </g>
   <g id="line2d_35">
    <path d="M 366.539697 336.637656 
L 366.539697 24.597656 
" clip-path="url(#pea356d9c4c)" style="fill: none; stroke-dasharray: 1.2,1.98; stroke-dashoffset: 0; stroke: #c8c1b6; stroke-width: 1.2"/>
   </g>
   <g id="line2d_36">
    <path d="M 439.822109 336.637656 
L 439.822109 24.597656 
" clip-path="url(#pea356d9c4c)" style="fill: none; stroke-dasharray: 1.2,1.98; stroke-dashoffset: 0; stroke: #c8c1b6; stroke-width: 1.2"/>
   </g>
   <g id="line2d_37">
    <path d="M 516.43554 336.637656 
L 516.43554 24.597656 
" clip-path="url(#pea356d9c4c)" style="fill: none; stroke-dasharray: 1.2,1.98; stroke-dashoffset: 0; stroke: #c8c1b6; stroke-width: 1.2"/>
   </g>
   <g id="line2d_38">
    <path d="M 589.717952 336.637656 
L 589.717952 24.597656 
" clip-path="url(#pea356d9c4c)" style="fill: none; stroke-dasharray: 1.2,1.98; stroke-dashoffset: 0; stroke: #c8c1b6; stroke-width: 1.2"/>
   </g>
   <g id="line2d_39">
    <path d="M 666.331383 336.637656 
L 666.331383 24.597656 
" clip-path="url(#pea356d9c4c)" style="fill: none; stroke-dasharray: 1.2,1.98; stroke-dashoffset: 0; stroke: #c8c1b6; stroke-width: 1.2"/>
   </g>
   <g id="patch_3">
    <path d="M 33.604375 336.637656 
L 33.604375 24.597656 
" style="fill: none; stroke: #c8c1b6; stroke-width: 0.8; stroke-linejoin: miter; stroke-linecap: square"/>
   </g>
   <g id="patch_4">
    <path d="M 762.764375 336.637656 
L 762.764375 24.597656 
" style="fill: none; stroke: #c8c1b6; stroke-width: 0.8; stroke-linejoin: miter; stroke-linecap: square"/>
   </g>
   <g id="patch_5">
    <path d="M 33.604375 336.637656 
L 762.764375 336.637656 
" style="fill: none; stroke: #c8c1b6; stroke-width: 0.8; stroke-linejoin: miter; stroke-linecap: square"/>
   </g>
   <g id="patch_6">
    <path d="M 33.604375 24.597656 
L 762.764375 24.597656 
" style="fill: none; stroke: #c8c1b6; stroke-width: 0.8; stroke-linejoin: miter; stroke-linecap: square"/>
   </g>
   <g id="text_20">
    <!-- epoch 2 -->
    <g style="fill: #686d73" transform="translate(142.695238 43.158006) scale(0.08 -0.08)">
     <defs>
      <path id="DejaVuSans-68" d="M 3513 2113 
L 3513 0 
L 2938 0 
L 2938 2094 
Q 2938 2591 2744 2837 
Q 2550 3084 2163 3084 
Q 1697 3084 1428 2787 
Q 1159 2491 1159 1978 
L 1159 0 
L 581 0 
L 581 4863 
L 1159 4863 
L 1159 2956 
Q 1366 3272 1645 3428 
Q 1925 3584 2291 3584 
Q 2894 3584 3203 3211 
Q 3513 2838 3513 2113 
z
" transform="scale(0.015625)"/>
     </defs>
     <use xlink:href="#DejaVuSans-65"/>
     <use xlink:href="#DejaVuSans-70" transform="translate(61.523438 0)"/>
     <use xlink:href="#DejaVuSans-6f" transform="translate(125 0)"/>
     <use xlink:href="#DejaVuSans-63" transform="translate(186.181641 0)"/>
     <use xlink:href="#DejaVuSans-68" transform="translate(241.162109 0)"/>
     <use xlink:href="#DejaVuSans-20" transform="translate(304.541016 0)"/>
     <use xlink:href="#DejaVuSans-32" transform="translate(336.328125 0)"/>
    </g>
   </g>
   <g id="text_21">
    <!-- epoch 3 -->
    <g style="fill: #686d73" transform="translate(219.308669 43.158006) scale(0.08 -0.08)">
     <use xlink:href="#DejaVuSans-65"/>
     <use xlink:href="#DejaVuSans-70" transform="translate(61.523438 0)"/>
     <use xlink:href="#DejaVuSans-6f" transform="translate(125 0)"/>
     <use xlink:href="#DejaVuSans-63" transform="translate(186.181641 0)"/>
     <use xlink:href="#DejaVuSans-68" transform="translate(241.162109 0)"/>
     <use xlink:href="#DejaVuSans-20" transform="translate(304.541016 0)"/>
     <use xlink:href="#DejaVuSans-33" transform="translate(336.328125 0)"/>
    </g>
   </g>
   <g id="text_22">
    <!-- epoch 4 -->
    <g style="fill: #686d73" transform="translate(292.591081 43.158006) scale(0.08 -0.08)">
     <use xlink:href="#DejaVuSans-65"/>
     <use xlink:href="#DejaVuSans-70" transform="translate(61.523438 0)"/>
     <use xlink:href="#DejaVuSans-6f" transform="translate(125 0)"/>
     <use xlink:href="#DejaVuSans-63" transform="translate(186.181641 0)"/>
     <use xlink:href="#DejaVuSans-68" transform="translate(241.162109 0)"/>
     <use xlink:href="#DejaVuSans-20" transform="translate(304.541016 0)"/>
     <use xlink:href="#DejaVuSans-34" transform="translate(336.328125 0)"/>
    </g>
   </g>
   <g id="text_23">
    <!-- epoch 5 -->
    <g style="fill: #686d73" transform="translate(369.204512 43.158006) scale(0.08 -0.08)">
     <use xlink:href="#DejaVuSans-65"/>
     <use xlink:href="#DejaVuSans-70" transform="translate(61.523438 0)"/>
     <use xlink:href="#DejaVuSans-6f" transform="translate(125 0)"/>
     <use xlink:href="#DejaVuSans-63" transform="translate(186.181641 0)"/>
     <use xlink:href="#DejaVuSans-68" transform="translate(241.162109 0)"/>
     <use xlink:href="#DejaVuSans-20" transform="translate(304.541016 0)"/>
     <use xlink:href="#DejaVuSans-35" transform="translate(336.328125 0)"/>
    </g>
   </g>
   <g id="text_24">
    <!-- epoch 6 -->
    <g style="fill: #686d73" transform="translate(442.486924 43.158006) scale(0.08 -0.08)">
     <use xlink:href="#DejaVuSans-65"/>
     <use xlink:href="#DejaVuSans-70" transform="translate(61.523438 0)"/>
     <use xlink:href="#DejaVuSans-6f" transform="translate(125 0)"/>
     <use xlink:href="#DejaVuSans-63" transform="translate(186.181641 0)"/>
     <use xlink:href="#DejaVuSans-68" transform="translate(241.162109 0)"/>
     <use xlink:href="#DejaVuSans-20" transform="translate(304.541016 0)"/>
     <use xlink:href="#DejaVuSans-36" transform="translate(336.328125 0)"/>
    </g>
   </g>
   <g id="text_25">
    <!-- epoch 7 -->
    <g style="fill: #686d73" transform="translate(519.100355 43.158006) scale(0.08 -0.08)">
     <use xlink:href="#DejaVuSans-65"/>
     <use xlink:href="#DejaVuSans-70" transform="translate(61.523438 0)"/>
     <use xlink:href="#DejaVuSans-6f" transform="translate(125 0)"/>
     <use xlink:href="#DejaVuSans-63" transform="translate(186.181641 0)"/>
     <use xlink:href="#DejaVuSans-68" transform="translate(241.162109 0)"/>
     <use xlink:href="#DejaVuSans-20" transform="translate(304.541016 0)"/>
     <use xlink:href="#DejaVuSans-37" transform="translate(336.328125 0)"/>
    </g>
   </g>
   <g id="text_26">
    <!-- epoch 8 -->
    <g style="fill: #686d73" transform="translate(592.382767 43.158006) scale(0.08 -0.08)">
     <use xlink:href="#DejaVuSans-65"/>
     <use xlink:href="#DejaVuSans-70" transform="translate(61.523438 0)"/>
     <use xlink:href="#DejaVuSans-6f" transform="translate(125 0)"/>
     <use xlink:href="#DejaVuSans-63" transform="translate(186.181641 0)"/>
     <use xlink:href="#DejaVuSans-68" transform="translate(241.162109 0)"/>
     <use xlink:href="#DejaVuSans-20" transform="translate(304.541016 0)"/>
     <use xlink:href="#DejaVuSans-38" transform="translate(336.328125 0)"/>
    </g>
   </g>
   <g id="text_27">
    <!-- epoch 9 -->
    <g style="fill: #686d73" transform="translate(668.996198 43.158006) scale(0.08 -0.08)">
     <defs>
      <path id="DejaVuSans-39" d="M 703 97 
L 703 672 
Q 941 559 1184 500 
Q 1428 441 1663 441 
Q 2288 441 2617 861 
Q 2947 1281 2994 2138 
Q 2813 1869 2534 1725 
Q 2256 1581 1919 1581 
Q 1219 1581 811 2004 
Q 403 2428 403 3163 
Q 403 3881 828 4315 
Q 1253 4750 1959 4750 
Q 2769 4750 3195 4129 
Q 3622 3509 3622 2328 
Q 3622 1225 3098 567 
Q 2575 -91 1691 -91 
Q 1453 -91 1209 -44 
Q 966 3 703 97 
z
M 1959 2075 
Q 2384 2075 2632 2365 
Q 2881 2656 2881 3163 
Q 2881 3666 2632 3958 
Q 2384 4250 1959 4250 
Q 1534 4250 1286 3958 
Q 1038 3666 1038 3163 
Q 1038 2656 1286 2365 
Q 1534 2075 1959 2075 
z
" transform="scale(0.015625)"/>
     </defs>
     <use xlink:href="#DejaVuSans-65"/>
     <use xlink:href="#DejaVuSans-70" transform="translate(61.523438 0)"/>
     <use xlink:href="#DejaVuSans-6f" transform="translate(125 0)"/>
     <use xlink:href="#DejaVuSans-63" transform="translate(186.181641 0)"/>
     <use xlink:href="#DejaVuSans-68" transform="translate(241.162109 0)"/>
     <use xlink:href="#DejaVuSans-20" transform="translate(304.541016 0)"/>
     <use xlink:href="#DejaVuSans-39" transform="translate(336.328125 0)"/>
    </g>
   </g>
   <g id="text_28">
    <!-- Train / validation loss -->
    <g transform="translate(33.604375 18.597656) scale(0.15 -0.15)">
     <defs>
      <path id="DejaVuSans-Bold-54" d="M 31 4666 
L 4331 4666 
L 4331 3756 
L 2784 3756 
L 2784 0 
L 1581 0 
L 1581 3756 
L 31 3756 
L 31 4666 
z
" transform="scale(0.015625)"/>
      <path id="DejaVuSans-Bold-72" d="M 3138 2547 
Q 2991 2616 2845 2648 
Q 2700 2681 2553 2681 
Q 2122 2681 1889 2404 
Q 1656 2128 1656 1613 
L 1656 0 
L 538 0 
L 538 3500 
L 1656 3500 
L 1656 2925 
Q 1872 3269 2151 3426 
Q 2431 3584 2822 3584 
Q 2878 3584 2943 3579 
Q 3009 3575 3134 3559 
L 3138 2547 
z
" transform="scale(0.015625)"/>
      <path id="DejaVuSans-Bold-61" d="M 2106 1575 
Q 1756 1575 1579 1456 
Q 1403 1338 1403 1106 
Q 1403 894 1545 773 
Q 1688 653 1941 653 
Q 2256 653 2472 879 
Q 2688 1106 2688 1447 
L 2688 1575 
L 2106 1575 
z
M 3816 1997 
L 3816 0 
L 2688 0 
L 2688 519 
Q 2463 200 2181 54 
Q 1900 -91 1497 -91 
Q 953 -91 614 226 
Q 275 544 275 1050 
Q 275 1666 698 1953 
Q 1122 2241 2028 2241 
L 2688 2241 
L 2688 2328 
Q 2688 2594 2478 2717 
Q 2269 2841 1825 2841 
Q 1466 2841 1156 2769 
Q 847 2697 581 2553 
L 581 3406 
Q 941 3494 1303 3539 
Q 1666 3584 2028 3584 
Q 2975 3584 3395 3211 
Q 3816 2838 3816 1997 
z
" transform="scale(0.015625)"/>
      <path id="DejaVuSans-Bold-69" d="M 538 3500 
L 1656 3500 
L 1656 0 
L 538 0 
L 538 3500 
z
M 538 4863 
L 1656 4863 
L 1656 3950 
L 538 3950 
L 538 4863 
z
" transform="scale(0.015625)"/>
      <path id="DejaVuSans-Bold-6e" d="M 4056 2131 
L 4056 0 
L 2931 0 
L 2931 347 
L 2931 1631 
Q 2931 2084 2911 2256 
Q 2891 2428 2841 2509 
Q 2775 2619 2662 2680 
Q 2550 2741 2406 2741 
Q 2056 2741 1856 2470 
Q 1656 2200 1656 1722 
L 1656 0 
L 538 0 
L 538 3500 
L 1656 3500 
L 1656 2988 
Q 1909 3294 2193 3439 
Q 2478 3584 2822 3584 
Q 3428 3584 3742 3212 
Q 4056 2841 4056 2131 
z
" transform="scale(0.015625)"/>
      <path id="DejaVuSans-Bold-20" transform="scale(0.015625)"/>
      <path id="DejaVuSans-Bold-2f" d="M 1644 4666 
L 2338 4666 
L 691 -594 
L 0 -594 
L 1644 4666 
z
" transform="scale(0.015625)"/>
      <path id="DejaVuSans-Bold-76" d="M 97 3500 
L 1216 3500 
L 2088 1081 
L 2956 3500 
L 4078 3500 
L 2700 0 
L 1472 0 
L 97 3500 
z
" transform="scale(0.015625)"/>
      <path id="DejaVuSans-Bold-6c" d="M 538 4863 
L 1656 4863 
L 1656 0 
L 538 0 
L 538 4863 
z
" transform="scale(0.015625)"/>
      <path id="DejaVuSans-Bold-64" d="M 2919 2988 
L 2919 4863 
L 4044 4863 
L 4044 0 
L 2919 0 
L 2919 506 
Q 2688 197 2409 53 
Q 2131 -91 1766 -91 
Q 1119 -91 703 423 
Q 288 938 288 1747 
Q 288 2556 703 3070 
Q 1119 3584 1766 3584 
Q 2128 3584 2408 3439 
Q 2688 3294 2919 2988 
z
M 2181 722 
Q 2541 722 2730 984 
Q 2919 1247 2919 1747 
Q 2919 2247 2730 2509 
Q 2541 2772 2181 2772 
Q 1825 2772 1636 2509 
Q 1447 2247 1447 1747 
Q 1447 1247 1636 984 
Q 1825 722 2181 722 
z
" transform="scale(0.015625)"/>
      <path id="DejaVuSans-Bold-74" d="M 1759 4494 
L 1759 3500 
L 2913 3500 
L 2913 2700 
L 1759 2700 
L 1759 1216 
Q 1759 972 1856 886 
Q 1953 800 2241 800 
L 2816 800 
L 2816 0 
L 1856 0 
Q 1194 0 917 276 
Q 641 553 641 1216 
L 641 2700 
L 84 2700 
L 84 3500 
L 641 3500 
L 641 4494 
L 1759 4494 
z
" transform="scale(0.015625)"/>
      <path id="DejaVuSans-Bold-6f" d="M 2203 2784 
Q 1831 2784 1636 2517 
Q 1441 2250 1441 1747 
Q 1441 1244 1636 976 
Q 1831 709 2203 709 
Q 2569 709 2762 976 
Q 2956 1244 2956 1747 
Q 2956 2250 2762 2517 
Q 2569 2784 2203 2784 
z
M 2203 3584 
Q 3106 3584 3614 3096 
Q 4122 2609 4122 1747 
Q 4122 884 3614 396 
Q 3106 -91 2203 -91 
Q 1297 -91 786 396 
Q 275 884 275 1747 
Q 275 2609 786 3096 
Q 1297 3584 2203 3584 
z
" transform="scale(0.015625)"/>
      <path id="DejaVuSans-Bold-73" d="M 3272 3391 
L 3272 2541 
Q 2913 2691 2578 2766 
Q 2244 2841 1947 2841 
Q 1628 2841 1473 2761 
Q 1319 2681 1319 2516 
Q 1319 2381 1436 2309 
Q 1553 2238 1856 2203 
L 2053 2175 
Q 2913 2066 3209 1816 
Q 3506 1566 3506 1031 
Q 3506 472 3093 190 
Q 2681 -91 1863 -91 
Q 1516 -91 1145 -36 
Q 775 19 384 128 
L 384 978 
Q 719 816 1070 734 
Q 1422 653 1784 653 
Q 2113 653 2278 743 
Q 2444 834 2444 1013 
Q 2444 1163 2330 1236 
Q 2216 1309 1875 1350 
L 1678 1375 
Q 931 1469 631 1722 
Q 331 1975 331 2491 
Q 331 3047 712 3315 
Q 1094 3584 1881 3584 
Q 2191 3584 2531 3537 
Q 2872 3491 3272 3391 
z
" transform="scale(0.015625)"/>
     </defs>
     <use xlink:href="#DejaVuSans-Bold-54"/>
     <use xlink:href="#DejaVuSans-Bold-72" transform="translate(57.212891 0)"/>
     <use xlink:href="#DejaVuSans-Bold-61" transform="translate(106.529297 0)"/>
     <use xlink:href="#DejaVuSans-Bold-69" transform="translate(174.009766 0)"/>
     <use xlink:href="#DejaVuSans-Bold-6e" transform="translate(208.287109 0)"/>
     <use xlink:href="#DejaVuSans-Bold-20" transform="translate(279.478516 0)"/>
     <use xlink:href="#DejaVuSans-Bold-2f" transform="translate(314.292969 0)"/>
     <use xlink:href="#DejaVuSans-Bold-20" transform="translate(350.816406 0)"/>
     <use xlink:href="#DejaVuSans-Bold-76" transform="translate(385.630859 0)"/>
     <use xlink:href="#DejaVuSans-Bold-61" transform="translate(450.816406 0)"/>
     <use xlink:href="#DejaVuSans-Bold-6c" transform="translate(518.296875 0)"/>
     <use xlink:href="#DejaVuSans-Bold-69" transform="translate(552.574219 0)"/>
     <use xlink:href="#DejaVuSans-Bold-64" transform="translate(586.851562 0)"/>
     <use xlink:href="#DejaVuSans-Bold-61" transform="translate(658.433594 0)"/>
     <use xlink:href="#DejaVuSans-Bold-74" transform="translate(725.914062 0)"/>
     <use xlink:href="#DejaVuSans-Bold-69" transform="translate(773.716797 0)"/>
     <use xlink:href="#DejaVuSans-Bold-6f" transform="translate(807.994141 0)"/>
     <use xlink:href="#DejaVuSans-Bold-6e" transform="translate(876.695312 0)"/>
     <use xlink:href="#DejaVuSans-Bold-20" transform="translate(947.886719 0)"/>
     <use xlink:href="#DejaVuSans-Bold-6c" transform="translate(982.701172 0)"/>
     <use xlink:href="#DejaVuSans-Bold-6f" transform="translate(1016.978516 0)"/>
     <use xlink:href="#DejaVuSans-Bold-73" transform="translate(1085.679688 0)"/>
     <use xlink:href="#DejaVuSans-Bold-73" transform="translate(1145.201172 0)"/>
    </g>
   </g>
   <g id="legend_1">
    <g id="line2d_40">
     <path d="M 550.333438 35.731328 
L 558.833438 35.731328 
L 567.333438 35.731328 
" style="fill: none; stroke-dasharray: 5.55,2.4; stroke-dashoffset: 0; stroke: #b67524; stroke-opacity: 0.72; stroke-width: 1.5"/>
    </g>
    <g id="text_29">
     <!-- v train -->
     <g transform="translate(574.133438 38.706328) scale(0.085 -0.085)">
      <defs>
       <path id="DejaVuSans-76" d="M 191 3500 
L 800 3500 
L 1894 563 
L 2988 3500 
L 3597 3500 
L 2284 0 
L 1503 0 
L 191 3500 
z
" transform="scale(0.015625)"/>
       <path id="DejaVuSans-61" d="M 2194 1759 
Q 1497 1759 1228 1600 
Q 959 1441 959 1056 
Q 959 750 1161 570 
Q 1363 391 1709 391 
Q 2188 391 2477 730 
Q 2766 1069 2766 1631 
L 2766 1759 
L 2194 1759 
z
M 3341 1997 
L 3341 0 
L 2766 0 
L 2766 531 
Q 2569 213 2275 61 
Q 1981 -91 1556 -91 
Q 1019 -91 701 211 
Q 384 513 384 1019 
Q 384 1609 779 1909 
Q 1175 2209 1959 2209 
L 2766 2209 
L 2766 2266 
Q 2766 2663 2505 2880 
Q 2244 3097 1772 3097 
Q 1472 3097 1187 3025 
Q 903 2953 641 2809 
L 641 3341 
Q 956 3463 1253 3523 
Q 1550 3584 1831 3584 
Q 2591 3584 2966 3190 
Q 3341 2797 3341 1997 
z
" transform="scale(0.015625)"/>
       <path id="DejaVuSans-69" d="M 603 3500 
L 1178 3500 
L 1178 0 
L 603 0 
L 603 3500 
z
M 603 4863 
L 1178 4863 
L 1178 4134 
L 603 4134 
L 603 4863 
z
" transform="scale(0.015625)"/>
      </defs>
      <use xlink:href="#DejaVuSans-76"/>
      <use xlink:href="#DejaVuSans-20" transform="translate(59.179688 0)"/>
      <use xlink:href="#DejaVuSans-74" transform="translate(90.966797 0)"/>
      <use xlink:href="#DejaVuSans-72" transform="translate(130.175781 0)"/>
      <use xlink:href="#DejaVuSans-61" transform="translate(171.289062 0)"/>
      <use xlink:href="#DejaVuSans-69" transform="translate(232.568359 0)"/>
      <use xlink:href="#DejaVuSans-6e" transform="translate(260.351562 0)"/>
     </g>
    </g>
    <g id="line2d_41">
     <path d="M 550.333438 48.207734 
L 558.833438 48.207734 
L 567.333438 48.207734 
" style="fill: none; stroke: #b67524; stroke-width: 2.1; stroke-linecap: square"/>
    </g>
    <g id="text_30">
     <!-- v val -->
     <g transform="translate(574.133438 51.182734) scale(0.085 -0.085)">
      <use xlink:href="#DejaVuSans-76"/>
      <use xlink:href="#DejaVuSans-20" transform="translate(59.179688 0)"/>
      <use xlink:href="#DejaVuSans-76" transform="translate(90.966797 0)"/>
      <use xlink:href="#DejaVuSans-61" transform="translate(150.146484 0)"/>
      <use xlink:href="#DejaVuSans-6c" transform="translate(211.425781 0)"/>
     </g>
    </g>
    <g id="line2d_42">
     <path d="M 618.649531 35.731328 
L 627.149531 35.731328 
L 635.649531 35.731328 
" style="fill: none; stroke-dasharray: 5.55,2.4; stroke-dashoffset: 0; stroke: #c4493d; stroke-opacity: 0.72; stroke-width: 1.5"/>
    </g>
    <g id="text_31">
     <!-- y train -->
     <g transform="translate(642.449531 38.706328) scale(0.085 -0.085)">
      <use xlink:href="#DejaVuSans-79"/>
      <use xlink:href="#DejaVuSans-20" transform="translate(59.179688 0)"/>
      <use xlink:href="#DejaVuSans-74" transform="translate(90.966797 0)"/>
      <use xlink:href="#DejaVuSans-72" transform="translate(130.175781 0)"/>
      <use xlink:href="#DejaVuSans-61" transform="translate(171.289062 0)"/>
      <use xlink:href="#DejaVuSans-69" transform="translate(232.568359 0)"/>
      <use xlink:href="#DejaVuSans-6e" transform="translate(260.351562 0)"/>
     </g>
    </g>
    <g id="line2d_43">
     <path d="M 618.649531 48.207734 
L 627.149531 48.207734 
L 635.649531 48.207734 
" style="fill: none; stroke: #c4493d; stroke-width: 2.1; stroke-linecap: square"/>
    </g>
    <g id="text_32">
     <!-- y val -->
     <g transform="translate(642.449531 51.182734) scale(0.085 -0.085)">
      <use xlink:href="#DejaVuSans-79"/>
      <use xlink:href="#DejaVuSans-20" transform="translate(59.179688 0)"/>
      <use xlink:href="#DejaVuSans-76" transform="translate(90.966797 0)"/>
      <use xlink:href="#DejaVuSans-61" transform="translate(150.146484 0)"/>
      <use xlink:href="#DejaVuSans-6c" transform="translate(211.425781 0)"/>
     </g>
    </g>
    <g id="line2d_44">
     <path d="M 686.965625 35.731328 
L 695.465625 35.731328 
L 703.965625 35.731328 
" style="fill: none; stroke-dasharray: 5.55,2.4; stroke-dashoffset: 0; stroke: #2d6f9f; stroke-opacity: 0.72; stroke-width: 1.5"/>
    </g>
    <g id="text_33">
     <!-- input train -->
     <g transform="translate(710.765625 38.706328) scale(0.085 -0.085)">
      <defs>
       <path id="DejaVuSans-75" d="M 544 1381 
L 544 3500 
L 1119 3500 
L 1119 1403 
Q 1119 906 1312 657 
Q 1506 409 1894 409 
Q 2359 409 2629 706 
Q 2900 1003 2900 1516 
L 2900 3500 
L 3475 3500 
L 3475 0 
L 2900 0 
L 2900 538 
Q 2691 219 2414 64 
Q 2138 -91 1772 -91 
Q 1169 -91 856 284 
Q 544 659 544 1381 
z
M 1991 3584 
L 1991 3584 
z
" transform="scale(0.015625)"/>
      </defs>
      <use xlink:href="#DejaVuSans-69"/>
      <use xlink:href="#DejaVuSans-6e" transform="translate(27.783203 0)"/>
      <use xlink:href="#DejaVuSans-70" transform="translate(91.162109 0)"/>
      <use xlink:href="#DejaVuSans-75" transform="translate(154.638672 0)"/>
      <use xlink:href="#DejaVuSans-74" transform="translate(218.017578 0)"/>
      <use xlink:href="#DejaVuSans-20" transform="translate(257.226562 0)"/>
      <use xlink:href="#DejaVuSans-74" transform="translate(289.013672 0)"/>
      <use xlink:href="#DejaVuSans-72" transform="translate(328.222656 0)"/>
      <use xlink:href="#DejaVuSans-61" transform="translate(369.335938 0)"/>
      <use xlink:href="#DejaVuSans-69" transform="translate(430.615234 0)"/>
      <use xlink:href="#DejaVuSans-6e" transform="translate(458.398438 0)"/>
     </g>
    </g>
    <g id="line2d_45">
     <path d="M 686.965625 48.207734 
L 695.465625 48.207734 
L 703.965625 48.207734 
" style="fill: none; stroke: #2d6f9f; stroke-width: 2.1; stroke-linecap: square"/>
    </g>
    <g id="text_34">
     <!-- input val -->
     <g transform="translate(710.765625 51.182734) scale(0.085 -0.085)">
      <use xlink:href="#DejaVuSans-69"/>
      <use xlink:href="#DejaVuSans-6e" transform="translate(27.783203 0)"/>
      <use xlink:href="#DejaVuSans-70" transform="translate(91.162109 0)"/>
      <use xlink:href="#DejaVuSans-75" transform="translate(154.638672 0)"/>
      <use xlink:href="#DejaVuSans-74" transform="translate(218.017578 0)"/>
      <use xlink:href="#DejaVuSans-20" transform="translate(257.226562 0)"/>
      <use xlink:href="#DejaVuSans-76" transform="translate(289.013672 0)"/>
      <use xlink:href="#DejaVuSans-61" transform="translate(348.193359 0)"/>
      <use xlink:href="#DejaVuSans-6c" transform="translate(409.472656 0)"/>
     </g>
    </g>
   </g>
  </g>
 </g>
 <defs>
  <clipPath id="pea356d9c4c">
   <rect x="33.604375" y="24.597656" width="729.16" height="312.04"/>
  </clipPath>
 </defs>
</svg>
