<?xml version="1.0" encoding="utf-8" standalone="no"?>
<!DOCTYPE svg PUBLIC "-//W3C//DTD SVG 1.1//EN"
  "http://www.w3.org/Graphics/SVG/1.1/DTD/svg11.dtd">
<svg xmlns:xlink="http://www.w3.org/1999/xlink" width="769.964375pt" height="373.226094pt" viewBox="0 0 769.964375 373.226094" xmlns="http://www.w3.org/2000/svg" version="1.1">
 <metadata>
  <rdf:RDF xmlns:dc="http://purl.org/dc/elements/1.1/" xmlns:cc="http://creativecommons.org/ns#" xmlns:rdf="http://www.w3.org/1999/02/22-rdf-syntax-ns#">
   <cc:Work>
    <dc:type rdf:resource="http://purl.org/dc/dcmitype/StillImage"/>
    <dc:date>2026-08-06T12:02:51.234091</dc:date>
    <dc:format>image/svg+xml</dc:format>
    <dc:creator>
     <cc:Agent>
      <dc:title>Matplotlib v3.10.9, https://matplotlib.org/</dc:title>
     </cc:Agent>
    </dc:creator>
   </cc:Work>
  </rdf:RDF>
 </metadata>
 <defs>
  <style type="text/css">*{stroke-linejoin: round; stroke-linecap: butt}</style>
 </defs>
 <g id="figure_1">
  <g id="patch_1">
   <path d="M 0 373.226094 
L 769.964375 373.226094 
L 769.964375 0 
L 0 0 
z
" style="fill: #f7f5ef"/>
  </g>
  <g id="axes_1">
   <g id="patch_2">
    <path d="M 33.604375 336.637656 
L 762.764375 336.637656 
L 762.764375 24.597656 
L 33.604375 24.597656 
z
" style="fill: #fffdf8"/>
   </g>
   <g id="matplotlib.axis_1">
    <g id="xtick_1">
     <g id="line2d_1">
      <defs>
       <path id="m54e5924d46" d="M 0 0 
L 0 3.5 
" style="stroke: #686d73; stroke-width: 0.8"/>
      </defs>
      <g>
       <use xlink:href="#m54e5924d46" x="171.412126" y="336.637656" style="fill: #686d73; stroke: #686d73; stroke-width: 0.8"/>
      </g>
     </g>
     <g id="text_1">
      <!-- 200 -->
      <g style="fill: #686d73" transform="translate(162.822751 350.47625) scale(0.09 -0.09)">
       <defs>
        <path id="DejaVuSans-32" d="M 1228 531 
L 3431 531 
L 3431 0 
L 469 0 
L 469 531 
Q 828 903 1448 1529 
Q 2069 2156 2228 2338 
Q 2531 2678 2651 2914 
Q 2772 3150 2772 3378 
Q 2772 3750 2511 3984 
Q 2250 4219 1831 4219 
Q 1534 4219 1204 4116 
Q 875 4013 500 3803 
L 500 4441 
Q 881 4594 1212 4672 
Q 1544 4750 1819 4750 
Q 2544 4750 2975 4387 
Q 3406 4025 3406 3419 
Q 3406 3131 3298 2873 
Q 3191 2616 2906 2266 
Q 2828 2175 2409 1742 
Q 1991 1309 1228 531 
z
" transform="scale(0.015625)"/>
        <path id="DejaVuSans-30" d="M 2034 4250 
Q 1547 4250 1301 3770 
Q 1056 3291 1056 2328 
Q 1056 1369 1301 889 
Q 1547 409 2034 409 
Q 2525 409 2770 889 
Q 3016 1369 3016 2328 
Q 3016 3291 2770 3770 
Q 2525 4250 2034 4250 
z
M 2034 4750 
Q 2819 4750 3233 4129 
Q 3647 3509 3647 2328 
Q 3647 1150 3233 529 
Q 2819 -91 2034 -91 
Q 1250 -91 836 529 
Q 422 1150 422 2328 
Q 422 3509 836 4129 
Q 1250 4750 2034 4750 
z
" transform="scale(0.015625)"/>
       </defs>
       <use xlink:href="#DejaVuSans-32"/>
       <use xlink:href="#DejaVuSans-30" transform="translate(63.623047 0)"/>
       <use xlink:href="#DejaVuSans-30" transform="translate(127.246094 0)"/>
      </g>
     </g>
    </g>
    <g id="xtick_2">
     <g id="line2d_2">
      <g>
       <use xlink:href="#m54e5924d46" x="310.964279" y="336.637656" style="fill: #686d73; stroke: #686d73; stroke-width: 0.8"/>
      </g>
     </g>
     <g id="text_2">
      <!-- 400 -->
      <g style="fill: #686d73" transform="translate(302.374904 350.47625) scale(0.09 -0.09)">
       <defs>
        <path id="DejaVuSans-34" d="M 2419 4116 
L 825 1625 
L 2419 1625 
L 2419 4116 
z
M 2253 4666 
L 3047 4666 
L 3047 1625 
L 3713 1625 
L 3713 1100 
L 3047 1100 
L 3047 0 
L 2419 0 
L 2419 1100 
L 313 1100 
L 313 1709 
L 2253 4666 
z
" transform="scale(0.015625)"/>
       </defs>
       <use xlink:href="#DejaVuSans-34"/>
       <use xlink:href="#DejaVuSans-30" transform="translate(63.623047 0)"/>
       <use xlink:href="#DejaVuSans-30" transform="translate(127.246094 0)"/>
      </g>
     </g>
    </g>
    <g id="xtick_3">
     <g id="line2d_3">
      <g>
       <use xlink:href="#m54e5924d46" x="450.516432" y="336.637656" style="fill: #686d73; stroke: #686d73; stroke-width: 0.8"/>
      </g>
     </g>
     <g id="text_3">
      <!-- 600 -->
      <g style="fill: #686d73" transform="translate(441.927057 350.47625) scale(0.09 -0.09)">
       <defs>
        <path id="DejaVuSans-36" d="M 2113 2584 
Q 1688 2584 1439 2293 
Q 1191 2003 1191 1497 
Q 1191 994 1439 701 
Q 1688 409 2113 409 
Q 2538 409 2786 701 
Q 3034 994 3034 1497 
Q 3034 2003 2786 2293 
Q 2538 2584 2113 2584 
z
M 3366 4563 
L 3366 3988 
Q 3128 4100 2886 4159 
Q 2644 4219 2406 4219 
Q 1781 4219 1451 3797 
Q 1122 3375 1075 2522 
Q 1259 2794 1537 2939 
Q 1816 3084 2150 3084 
Q 2853 3084 3261 2657 
Q 3669 2231 3669 1497 
Q 3669 778 3244 343 
Q 2819 -91 2113 -91 
Q 1303 -91 875 529 
Q 447 1150 447 2328 
Q 447 3434 972 4092 
Q 1497 4750 2381 4750 
Q 2619 4750 2861 4703 
Q 3103 4656 3366 4563 
z
" transform="scale(0.015625)"/>
       </defs>
       <use xlink:href="#DejaVuSans-36"/>
       <use xlink:href="#DejaVuSans-30" transform="translate(63.623047 0)"/>
       <use xlink:href="#DejaVuSans-30" transform="translate(127.246094 0)"/>
      </g>
     </g>
    </g>
    <g id="xtick_4">
     <g id="line2d_4">
      <g>
       <use xlink:href="#m54e5924d46" x="590.068586" y="336.637656" style="fill: #686d73; stroke: #686d73; stroke-width: 0.8"/>
      </g>
     </g>
     <g id="text_4">
      <!-- 800 -->
      <g style="fill: #686d73" transform="translate(581.479211 350.47625) scale(0.09 -0.09)">
       <defs>
        <path id="DejaVuSans-38" d="M 2034 2216 
Q 1584 2216 1326 1975 
Q 1069 1734 1069 1313 
Q 1069 891 1326 650 
Q 1584 409 2034 409 
Q 2484 409 2743 651 
Q 3003 894 3003 1313 
Q 3003 1734 2745 1975 
Q 2488 2216 2034 2216 
z
M 1403 2484 
Q 997 2584 770 2862 
Q 544 3141 544 3541 
Q 544 4100 942 4425 
Q 1341 4750 2034 4750 
Q 2731 4750 3128 4425 
Q 3525 4100 3525 3541 
Q 3525 3141 3298 2862 
Q 3072 2584 2669 2484 
Q 3125 2378 3379 2068 
Q 3634 1759 3634 1313 
Q 3634 634 3220 271 
Q 2806 -91 2034 -91 
Q 1263 -91 848 271 
Q 434 634 434 1313 
Q 434 1759 690 2068 
Q 947 2378 1403 2484 
z
M 1172 3481 
Q 1172 3119 1398 2916 
Q 1625 2713 2034 2713 
Q 2441 2713 2670 2916 
Q 2900 3119 2900 3481 
Q 2900 3844 2670 4047 
Q 2441 4250 2034 4250 
Q 1625 4250 1398 4047 
Q 1172 3844 1172 3481 
z
" transform="scale(0.015625)"/>
       </defs>
       <use xlink:href="#DejaVuSans-38"/>
       <use xlink:href="#DejaVuSans-30" transform="translate(63.623047 0)"/>
       <use xlink:href="#DejaVuSans-30" transform="translate(127.246094 0)"/>
      </g>
     </g>
    </g>
    <g id="xtick_5">
     <g id="line2d_5">
      <g>
       <use xlink:href="#m54e5924d46" x="729.620739" y="336.637656" style="fill: #686d73; stroke: #686d73; stroke-width: 0.8"/>
      </g>
     </g>
     <g id="text_5">
      <!-- 1000 -->
      <g style="fill: #686d73" transform="translate(718.168239 350.47625) scale(0.09 -0.09)">
       <defs>
        <path id="DejaVuSans-31" d="M 794 531 
L 1825 531 
L 1825 4091 
L 703 3866 
L 703 4441 
L 1819 4666 
L 2450 4666 
L 2450 531 
L 3481 531 
L 3481 0 
L 794 0 
L 794 531 
z
" transform="scale(0.015625)"/>
       </defs>
       <use xlink:href="#DejaVuSans-31"/>
       <use xlink:href="#DejaVuSans-30" transform="translate(63.623047 0)"/>
       <use xlink:href="#DejaVuSans-30" transform="translate(127.246094 0)"/>
       <use xlink:href="#DejaVuSans-30" transform="translate(190.869141 0)"/>
      </g>
     </g>
    </g>
    <g id="text_6">
     <!-- step -->
     <g style="fill: #686d73" transform="translate(387.36875 363.946406) scale(0.1 -0.1)">
      <defs>
       <path id="DejaVuSans-73" d="M 2834 3397 
L 2834 2853 
Q 2591 2978 2328 3040 
Q 2066 3103 1784 3103 
Q 1356 3103 1142 2972 
Q 928 2841 928 2578 
Q 928 2378 1081 2264 
Q 1234 2150 1697 2047 
L 1894 2003 
Q 2506 1872 2764 1633 
Q 3022 1394 3022 966 
Q 3022 478 2636 193 
Q 2250 -91 1575 -91 
Q 1294 -91 989 -36 
Q 684 19 347 128 
L 347 722 
Q 666 556 975 473 
Q 1284 391 1588 391 
Q 1994 391 2212 530 
Q 2431 669 2431 922 
Q 2431 1156 2273 1281 
Q 2116 1406 1581 1522 
L 1381 1569 
Q 847 1681 609 1914 
Q 372 2147 372 2553 
Q 372 3047 722 3315 
Q 1072 3584 1716 3584 
Q 2034 3584 2315 3537 
Q 2597 3491 2834 3397 
z
" transform="scale(0.015625)"/>
       <path id="DejaVuSans-74" d="M 1172 4494 
L 1172 3500 
L 2356 3500 
L 2356 3053 
L 1172 3053 
L 1172 1153 
Q 1172 725 1289 603 
Q 1406 481 1766 481 
L 2356 481 
L 2356 0 
L 1766 0 
Q 1100 0 847 248 
Q 594 497 594 1153 
L 594 3053 
L 172 3053 
L 172 3500 
L 594 3500 
L 594 4494 
L 1172 4494 
z
" transform="scale(0.015625)"/>
       <path id="DejaVuSans-65" d="M 3597 1894 
L 3597 1613 
L 953 1613 
Q 991 1019 1311 708 
Q 1631 397 2203 397 
Q 2534 397 2845 478 
Q 3156 559 3463 722 
L 3463 178 
Q 3153 47 2828 -22 
Q 2503 -91 2169 -91 
Q 1331 -91 842 396 
Q 353 884 353 1716 
Q 353 2575 817 3079 
Q 1281 3584 2069 3584 
Q 2775 3584 3186 3129 
Q 3597 2675 3597 1894 
z
M 3022 2063 
Q 3016 2534 2758 2815 
Q 2500 3097 2075 3097 
Q 1594 3097 1305 2825 
Q 1016 2553 972 2059 
L 3022 2063 
z
" transform="scale(0.015625)"/>
       <path id="DejaVuSans-70" d="M 1159 525 
L 1159 -1331 
L 581 -1331 
L 581 3500 
L 1159 3500 
L 1159 2969 
Q 1341 3281 1617 3432 
Q 1894 3584 2278 3584 
Q 2916 3584 3314 3078 
Q 3713 2572 3713 1747 
Q 3713 922 3314 415 
Q 2916 -91 2278 -91 
Q 1894 -91 1617 61 
Q 1341 213 1159 525 
z
M 3116 1747 
Q 3116 2381 2855 2742 
Q 2594 3103 2138 3103 
Q 1681 3103 1420 2742 
Q 1159 2381 1159 1747 
Q 1159 1113 1420 752 
Q 1681 391 2138 391 
Q 2594 391 2855 752 
Q 3116 1113 3116 1747 
z
" transform="scale(0.015625)"/>
      </defs>
      <use xlink:href="#DejaVuSans-73"/>
      <use xlink:href="#DejaVuSans-74" transform="translate(52.099609 0)"/>
      <use xlink:href="#DejaVuSans-65" transform="translate(91.308594 0)"/>
      <use xlink:href="#DejaVuSans-70" transform="translate(152.832031 0)"/>
     </g>
    </g>
   </g>
   <g id="matplotlib.axis_2">
    <g id="ytick_1">
     <g id="line2d_6">
      <path d="M 33.604375 318.066948 
L 762.764375 318.066948 
" clip-path="url(#pc0af78e8cf)" style="fill: none; stroke: #c8c1b6; stroke-opacity: 0.55; stroke-width: 0.7; stroke-linecap: square"/>
     </g>
     <g id="line2d_7">
      <defs>
       <path id="m5bc121bf6c" d="M 0 0 
L -3.5 0 
" style="stroke: #686d73; stroke-width: 0.8"/>
      </defs>
      <g>
       <use xlink:href="#m5bc121bf6c" x="33.604375" y="318.066948" style="fill: #686d73; stroke: #686d73; stroke-width: 0.8"/>
      </g>
     </g>
     <g id="text_7">
      <!-- 2 -->
      <g style="fill: #686d73" transform="translate(20.878125 321.486245) scale(0.09 -0.09)">
       <use xlink:href="#DejaVuSans-32"/>
      </g>
     </g>
    </g>
    <g id="ytick_2">
     <g id="line2d_8">
      <path d="M 33.604375 264.334397 
L 762.764375 264.334397 
" clip-path="url(#pc0af78e8cf)" style="fill: none; stroke: #c8c1b6; stroke-opacity: 0.55; stroke-width: 0.7; stroke-linecap: square"/>
     </g>
     <g id="line2d_9">
      <g>
       <use xlink:href="#m5bc121bf6c" x="33.604375" y="264.334397" style="fill: #686d73; stroke: #686d73; stroke-width: 0.8"/>
      </g>
     </g>
     <g id="text_8">
      <!-- 3 -->
      <g style="fill: #686d73" transform="translate(20.878125 267.753694) scale(0.09 -0.09)">
       <defs>
        <path id="DejaVuSans-33" d="M 2597 2516 
Q 3050 2419 3304 2112 
Q 3559 1806 3559 1356 
Q 3559 666 3084 287 
Q 2609 -91 1734 -91 
Q 1441 -91 1130 -33 
Q 819 25 488 141 
L 488 750 
Q 750 597 1062 519 
Q 1375 441 1716 441 
Q 2309 441 2620 675 
Q 2931 909 2931 1356 
Q 2931 1769 2642 2001 
Q 2353 2234 1838 2234 
L 1294 2234 
L 1294 2753 
L 1863 2753 
Q 2328 2753 2575 2939 
Q 2822 3125 2822 3475 
Q 2822 3834 2567 4026 
Q 2313 4219 1838 4219 
Q 1578 4219 1281 4162 
Q 984 4106 628 3988 
L 628 4550 
Q 988 4650 1302 4700 
Q 1616 4750 1894 4750 
Q 2613 4750 3031 4423 
Q 3450 4097 3450 3541 
Q 3450 3153 3228 2886 
Q 3006 2619 2597 2516 
z
" transform="scale(0.015625)"/>
       </defs>
       <use xlink:href="#DejaVuSans-33"/>
      </g>
     </g>
    </g>
    <g id="ytick_3">
     <g id="line2d_10">
      <path d="M 33.604375 210.601846 
L 762.764375 210.601846 
" clip-path="url(#pc0af78e8cf)" style="fill: none; stroke: #c8c1b6; stroke-opacity: 0.55; stroke-width: 0.7; stroke-linecap: square"/>
     </g>
     <g id="line2d_11">
      <g>
       <use xlink:href="#m5bc121bf6c" x="33.604375" y="210.601846" style="fill: #686d73; stroke: #686d73; stroke-width: 0.8"/>
      </g>
     </g>
     <g id="text_9">
      <!-- 4 -->
      <g style="fill: #686d73" transform="translate(20.878125 214.021143) scale(0.09 -0.09)">
       <use xlink:href="#DejaVuSans-34"/>
      </g>
     </g>
    </g>
    <g id="ytick_4">
     <g id="line2d_12">
      <path d="M 33.604375 156.869295 
L 762.764375 156.869295 
" clip-path="url(#pc0af78e8cf)" style="fill: none; stroke: #c8c1b6; stroke-opacity: 0.55; stroke-width: 0.7; stroke-linecap: square"/>
     </g>
     <g id="line2d_13">
      <g>
       <use xlink:href="#m5bc121bf6c" x="33.604375" y="156.869295" style="fill: #686d73; stroke: #686d73; stroke-width: 0.8"/>
      </g>
     </g>
     <g id="text_10">
      <!-- 5 -->
      <g style="fill: #686d73" transform="translate(20.878125 160.288592) scale(0.09 -0.09)">
       <defs>
        <path id="DejaVuSans-35" d="M 691 4666 
L 3169 4666 
L 3169 4134 
L 1269 4134 
L 1269 2991 
Q 1406 3038 1543 3061 
Q 1681 3084 1819 3084 
Q 2600 3084 3056 2656 
Q 3513 2228 3513 1497 
Q 3513 744 3044 326 
Q 2575 -91 1722 -91 
Q 1428 -91 1123 -41 
Q 819 9 494 109 
L 494 744 
Q 775 591 1075 516 
Q 1375 441 1709 441 
Q 2250 441 2565 725 
Q 2881 1009 2881 1497 
Q 2881 1984 2565 2268 
Q 2250 2553 1709 2553 
Q 1456 2553 1204 2497 
Q 953 2441 691 2322 
L 691 4666 
z
" transform="scale(0.015625)"/>
       </defs>
       <use xlink:href="#DejaVuSans-35"/>
      </g>
     </g>
    </g>
    <g id="ytick_5">
     <g id="line2d_14">
      <path d="M 33.604375 103.136745 
L 762.764375 103.136745 
" clip-path="url(#pc0af78e8cf)" style="fill: none; stroke: #c8c1b6; stroke-opacity: 0.55; stroke-width: 0.7; stroke-linecap: square"/>
     </g>
     <g id="line2d_15">
      <g>
       <use xlink:href="#m5bc121bf6c" x="33.604375" y="103.136745" style="fill: #686d73; stroke: #686d73; stroke-width: 0.8"/>
      </g>
     </g>
     <g id="text_11">
      <!-- 6 -->
      <g style="fill: #686d73" transform="translate(20.878125 106.556041) scale(0.09 -0.09)">
       <use xlink:href="#DejaVuSans-36"/>
      </g>
     </g>
    </g>
    <g id="ytick_6">
     <g id="line2d_16">
      <path d="M 33.604375 49.404194 
L 762.764375 49.404194 
" clip-path="url(#pc0af78e8cf)" style="fill: none; stroke: #c8c1b6; stroke-opacity: 0.55; stroke-width: 0.7; stroke-linecap: square"/>
     </g>
     <g id="line2d_17">
      <g>
       <use xlink:href="#m5bc121bf6c" x="33.604375" y="49.404194" style="fill: #686d73; stroke: #686d73; stroke-width: 0.8"/>
      </g>
     </g>
     <g id="text_12">
      <!-- 7 -->
      <g style="fill: #686d73" transform="translate(20.878125 52.82349) scale(0.09 -0.09)">
       <defs>
        <path id="DejaVuSans-37" d="M 525 4666 
L 3525 4666 
L 3525 4397 
L 1831 0 
L 1172 0 
L 2766 4134 
L 525 4134 
L 525 4666 
z
" transform="scale(0.015625)"/>
       </defs>
       <use xlink:href="#DejaVuSans-37"/>
      </g>
     </g>
    </g>
    <g id="text_13">
     <!-- cross-entropy loss -->
     <g style="fill: #686d73" transform="translate(14.798438 225.970781) rotate(-90) scale(0.1 -0.1)">
      <defs>
       <path id="DejaVuSans-63" d="M 3122 3366 
L 3122 2828 
Q 2878 2963 2633 3030 
Q 2388 3097 2138 3097 
Q 1578 3097 1268 2742 
Q 959 2388 959 1747 
Q 959 1106 1268 751 
Q 1578 397 2138 397 
Q 2388 397 2633 464 
Q 2878 531 3122 666 
L 3122 134 
Q 2881 22 2623 -34 
Q 2366 -91 2075 -91 
Q 1284 -91 818 406 
Q 353 903 353 1747 
Q 353 2603 823 3093 
Q 1294 3584 2113 3584 
Q 2378 3584 2631 3529 
Q 2884 3475 3122 3366 
z
" transform="scale(0.015625)"/>
       <path id="DejaVuSans-72" d="M 2631 2963 
Q 2534 3019 2420 3045 
Q 2306 3072 2169 3072 
Q 1681 3072 1420 2755 
Q 1159 2438 1159 1844 
L 1159 0 
L 581 0 
L 581 3500 
L 1159 3500 
L 1159 2956 
Q 1341 3275 1631 3429 
Q 1922 3584 2338 3584 
Q 2397 3584 2469 3576 
Q 2541 3569 2628 3553 
L 2631 2963 
z
" transform="scale(0.015625)"/>
       <path id="DejaVuSans-6f" d="M 1959 3097 
Q 1497 3097 1228 2736 
Q 959 2375 959 1747 
Q 959 1119 1226 758 
Q 1494 397 1959 397 
Q 2419 397 2687 759 
Q 2956 1122 2956 1747 
Q 2956 2369 2687 2733 
Q 2419 3097 1959 3097 
z
M 1959 3584 
Q 2709 3584 3137 3096 
Q 3566 2609 3566 1747 
Q 3566 888 3137 398 
Q 2709 -91 1959 -91 
Q 1206 -91 779 398 
Q 353 888 353 1747 
Q 353 2609 779 3096 
Q 1206 3584 1959 3584 
z
" transform="scale(0.015625)"/>
       <path id="DejaVuSans-2d" d="M 313 2009 
L 1997 2009 
L 1997 1497 
L 313 1497 
L 313 2009 
z
" transform="scale(0.015625)"/>
       <path id="DejaVuSans-6e" d="M 3513 2113 
L 3513 0 
L 2938 0 
L 2938 2094 
Q 2938 2591 2744 2837 
Q 2550 3084 2163 3084 
Q 1697 3084 1428 2787 
Q 1159 2491 1159 1978 
L 1159 0 
L 581 0 
L 581 3500 
L 1159 3500 
L 1159 2956 
Q 1366 3272 1645 3428 
Q 1925 3584 2291 3584 
Q 2894 3584 3203 3211 
Q 3513 2838 3513 2113 
z
" transform="scale(0.015625)"/>
       <path id="DejaVuSans-79" d="M 2059 -325 
Q 1816 -950 1584 -1140 
Q 1353 -1331 966 -1331 
L 506 -1331 
L 506 -850 
L 844 -850 
Q 1081 -850 1212 -737 
Q 1344 -625 1503 -206 
L 1606 56 
L 191 3500 
L 800 3500 
L 1894 763 
L 2988 3500 
L 3597 3500 
L 2059 -325 
z
" transform="scale(0.015625)"/>
       <path id="DejaVuSans-20" transform="scale(0.015625)"/>
       <path id="DejaVuSans-6c" d="M 603 4863 
L 1178 4863 
L 1178 0 
L 603 0 
L 603 4863 
z
" transform="scale(0.015625)"/>
      </defs>
      <use xlink:href="#DejaVuSans-63"/>
      <use xlink:href="#DejaVuSans-72" transform="translate(54.980469 0)"/>
      <use xlink:href="#DejaVuSans-6f" transform="translate(93.84375 0)"/>
      <use xlink:href="#DejaVuSans-73" transform="translate(155.025391 0)"/>
      <use xlink:href="#DejaVuSans-73" transform="translate(207.125 0)"/>
      <use xlink:href="#DejaVuSans-2d" transform="translate(259.224609 0)"/>
      <use xlink:href="#DejaVuSans-65" transform="translate(295.308594 0)"/>
      <use xlink:href="#DejaVuSans-6e" transform="translate(356.832031 0)"/>
      <use xlink:href="#DejaVuSans-74" transform="translate(420.210938 0)"/>
      <use xlink:href="#DejaVuSans-72" transform="translate(459.419922 0)"/>
      <use xlink:href="#DejaVuSans-6f" transform="translate(498.283203 0)"/>
      <use xlink:href="#DejaVuSans-70" transform="translate(559.464844 0)"/>
      <use xlink:href="#DejaVuSans-79" transform="translate(622.941406 0)"/>
      <use xlink:href="#DejaVuSans-20" transform="translate(682.121094 0)"/>
      <use xlink:href="#DejaVuSans-6c" transform="translate(713.908203 0)"/>
      <use xlink:href="#DejaVuSans-6f" transform="translate(741.691406 0)"/>
      <use xlink:href="#DejaVuSans-73" transform="translate(802.873047 0)"/>
      <use xlink:href="#DejaVuSans-73" transform="translate(854.972656 0)"/>
     </g>
    </g>
   </g>
   <g id="line2d_18">
    <path d="M 66.748011 40.053665 
L 101.63605 69.511855 
L 136.524088 90.815024 
L 171.412126 98.254098 
L 206.300164 106.005014 
L 241.188203 117.078344 
L 276.076241 117.878125 
L 310.964279 124.283519 
L 345.852318 128.595365 
L 380.740356 131.237908 
L 415.628394 140.500631 
L 450.516432 161.785788 
L 485.404471 166.245958 
L 520.292509 176.503853 
L 555.180547 183.608385 
L 590.068586 188.445399 
L 624.956624 196.581152 
L 659.844662 204.433402 
L 694.7327 215.899333 
L 729.620739 213.220407 
" clip-path="url(#pc0af78e8cf)" style="fill: none; stroke-dasharray: 5.55,2.4; stroke-dashoffset: 0; stroke: #b67524; stroke-opacity: 0.72; stroke-width: 1.5"/>
   </g>
   <g id="line2d_19">
    <path d="M 66.748011 40.325511 
L 101.63605 69.092358 
L 136.524088 90.060305 
L 171.412126 99.165538 
L 206.300164 107.299146 
L 241.188203 114.73375 
L 276.076241 119.522864 
L 310.964279 125.503296 
L 345.852318 128.078153 
L 380.740356 130.96922 
L 415.628394 142.509511 
L 450.516432 158.478087 
L 485.404471 166.779228 
L 520.292509 176.357162 
L 555.180547 182.954443 
L 590.068586 184.902946 
L 624.956624 188.346262 
L 659.844662 190.54548 
L 694.7327 191.860993 
L 729.620739 195.513228 
" clip-path="url(#pc0af78e8cf)" style="fill: none; stroke: #b67524; stroke-width: 2.1; stroke-linecap: square"/>
   </g>
   <g id="line2d_20">
    <path d="M 66.748011 47.277056 
L 101.63605 78.55992 
L 136.524088 97.393082 
L 171.412126 121.362648 
L 206.300164 144.74376 
L 241.188203 158.303879 
L 276.076241 169.181869 
L 310.964279 180.193195 
L 345.852318 192.140736 
L 380.740356 205.842364 
L 415.628394 220.422584 
L 450.516432 235.569645 
L 485.404471 247.295303 
L 520.292509 259.195509 
L 555.180547 269.359705 
L 590.068586 278.359345 
L 624.956624 294.102417 
L 659.844662 304.336074 
L 694.7327 317.172765 
L 729.620739 322.45402 
" clip-path="url(#pc0af78e8cf)" style="fill: none; stroke-dasharray: 5.55,2.4; stroke-dashoffset: 0; stroke: #c4493d; stroke-opacity: 0.72; stroke-width: 1.5"/>
   </g>
   <g id="line2d_21">
    <path d="M 66.748011 50.721795 
L 101.63605 76.77496 
L 136.524088 96.273094 
L 171.412126 122.990181 
L 206.300164 147.257413 
L 241.188203 157.714644 
L 276.076241 168.578075 
L 310.964279 176.925701 
L 345.852318 182.584139 
L 380.740356 182.859835 
L 415.628394 176.396639 
L 450.516432 175.289392 
L 485.404471 166.716346 
L 520.292509 167.553439 
L 555.180547 165.090004 
L 590.068586 153.390365 
L 624.956624 142.655254 
L 659.844662 136.609467 
L 694.7327 130.222719 
L 729.620739 134.547735 
" clip-path="url(#pc0af78e8cf)" style="fill: none; stroke: #c4493d; stroke-width: 2.1; stroke-linecap: square"/>
   </g>
   <g id="line2d_22">
    <path d="M 66.748011 38.781293 
L 101.63605 79.880256 
L 136.524088 108.30415 
L 171.412126 125.887128 
L 206.300164 136.528323 
L 241.188203 148.587473 
L 276.076241 154.180992 
L 310.964279 162.565609 
L 345.852318 171.337498 
L 380.740356 177.822703 
L 415.628394 181.050137 
L 450.516432 193.359252 
L 485.404471 195.982681 
L 520.292509 204.160352 
L 555.180547 212.030767 
L 590.068586 216.095313 
L 624.956624 218.739035 
L 659.844662 224.195299 
L 694.7327 234.983383 
L 729.620739 228.529731 
" clip-path="url(#pc0af78e8cf)" style="fill: none; stroke-dasharray: 5.55,2.4; stroke-dashoffset: 0; stroke: #2d6f9f; stroke-opacity: 0.72; stroke-width: 1.5"/>
   </g>
   <g id="line2d_23">
    <path d="M 66.748011 39.506367 
L 101.63605 80.544222 
L 136.524088 109.635375 
L 171.412126 125.248482 
L 206.300164 138.58666 
L 241.188203 146.951919 
L 276.076241 152.226737 
L 310.964279 157.657886 
L 345.852318 159.19092 
L 380.740356 163.969389 
L 415.628394 167.337429 
L 450.516432 171.994796 
L 485.404471 174.116361 
L 520.292509 173.839153 
L 555.180547 177.136317 
L 590.068586 176.101791 
L 624.956624 179.905566 
L 659.844662 181.844582 
L 694.7327 180.805726 
L 729.620739 186.335966 
" clip-path="url(#pc0af78e8cf)" style="fill: none; stroke: #2d6f9f; stroke-width: 2.1; stroke-linecap: square"/>
   </g>
   <g id="line2d_24">
    <path d="M 267.005351 336.637656 
L 267.005351 24.597656 
" clip-path="url(#pc0af78e8cf)" style="fill: none; stroke-dasharray: 1.2,1.98; stroke-dashoffset: 0; stroke: #c8c1b6; stroke-width: 1.2"/>
   </g>
   <g id="line2d_25">
    <path d="M 510.523858 336.637656 
L 510.523858 24.597656 
" clip-path="url(#pc0af78e8cf)" style="fill: none; stroke-dasharray: 1.2,1.98; stroke-dashoffset: 0; stroke: #c8c1b6; stroke-width: 1.2"/>
   </g>
   <g id="patch_3">
    <path d="M 33.604375 336.637656 
L 33.604375 24.597656 
" style="fill: none; stroke: #c8c1b6; stroke-width: 0.8; stroke-linejoin: miter; stroke-linecap: square"/>
   </g>
   <g id="patch_4">
    <path d="M 762.764375 336.637656 
L 762.764375 24.597656 
" style="fill: none; stroke: #c8c1b6; stroke-width: 0.8; stroke-linejoin: miter; stroke-linecap: square"/>
   </g>
   <g id="patch_5">
    <path d="M 33.604375 336.637656 
L 762.764375 336.637656 
" style="fill: none; stroke: #c8c1b6; stroke-width: 0.8; stroke-linejoin: miter; stroke-linecap: square"/>
   </g>
   <g id="patch_6">
    <path d="M 33.604375 24.597656 
L 762.764375 24.597656 
" style="fill: none; stroke: #c8c1b6; stroke-width: 0.8; stroke-linejoin: miter; stroke-linecap: square"/>
   </g>
   <g id="text_14">
    <!-- epoch 2 -->
    <g style="fill: #686d73" transform="translate(272.587437 43.158006) scale(0.08 -0.08)">
     <defs>
      <path id="DejaVuSans-68" d="M 3513 2113 
L 3513 0 
L 2938 0 
L 2938 2094 
Q 2938 2591 2744 2837 
Q 2550 3084 2163 3084 
Q 1697 3084 1428 2787 
Q 1159 2491 1159 1978 
L 1159 0 
L 581 0 
L 581 4863 
L 1159 4863 
L 1159 2956 
Q 1366 3272 1645 3428 
Q 1925 3584 2291 3584 
Q 2894 3584 3203 3211 
Q 3513 2838 3513 2113 
z
" transform="scale(0.015625)"/>
     </defs>
     <use xlink:href="#DejaVuSans-65"/>
     <use xlink:href="#DejaVuSans-70" transform="translate(61.523438 0)"/>
     <use xlink:href="#DejaVuSans-6f" transform="translate(125 0)"/>
     <use xlink:href="#DejaVuSans-63" transform="translate(186.181641 0)"/>
     <use xlink:href="#DejaVuSans-68" transform="translate(241.162109 0)"/>
     <use xlink:href="#DejaVuSans-20" transform="translate(304.541016 0)"/>
     <use xlink:href="#DejaVuSans-32" transform="translate(336.328125 0)"/>
    </g>
   </g>
   <g id="text_15">
    <!-- epoch 3 -->
    <g style="fill: #686d73" transform="translate(516.105944 43.158006) scale(0.08 -0.08)">
     <use xlink:href="#DejaVuSans-65"/>
     <use xlink:href="#DejaVuSans-70" transform="translate(61.523438 0)"/>
     <use xlink:href="#DejaVuSans-6f" transform="translate(125 0)"/>
     <use xlink:href="#DejaVuSans-63" transform="translate(186.181641 0)"/>
     <use xlink:href="#DejaVuSans-68" transform="translate(241.162109 0)"/>
     <use xlink:href="#DejaVuSans-20" transform="translate(304.541016 0)"/>
     <use xlink:href="#DejaVuSans-33" transform="translate(336.328125 0)"/>
    </g>
   </g>
   <g id="text_16">
    <!-- Train / validation loss -->
    <g transform="translate(33.604375 18.597656) scale(0.15 -0.15)">
     <defs>
      <path id="DejaVuSans-Bold-54" d="M 31 4666 
L 4331 4666 
L 4331 3756 
L 2784 3756 
L 2784 0 
L 1581 0 
L 1581 3756 
L 31 3756 
L 31 4666 
z
" transform="scale(0.015625)"/>
      <path id="DejaVuSans-Bold-72" d="M 3138 2547 
Q 2991 2616 2845 2648 
Q 2700 2681 2553 2681 
Q 2122 2681 1889 2404 
Q 1656 2128 1656 1613 
L 1656 0 
L 538 0 
L 538 3500 
L 1656 3500 
L 1656 2925 
Q 1872 3269 2151 3426 
Q 2431 3584 2822 3584 
Q 2878 3584 2943 3579 
Q 3009 3575 3134 3559 
L 3138 2547 
z
" transform="scale(0.015625)"/>
      <path id="DejaVuSans-Bold-61" d="M 2106 1575 
Q 1756 1575 1579 1456 
Q 1403 1338 1403 1106 
Q 1403 894 1545 773 
Q 1688 653 1941 653 
Q 2256 653 2472 879 
Q 2688 1106 2688 1447 
L 2688 1575 
L 2106 1575 
z
M 3816 1997 
L 3816 0 
L 2688 0 
L 2688 519 
Q 2463 200 2181 54 
Q 1900 -91 1497 -91 
Q 953 -91 614 226 
Q 275 544 275 1050 
Q 275 1666 698 1953 
Q 1122 2241 2028 2241 
L 2688 2241 
L 2688 2328 
Q 2688 2594 2478 2717 
Q 2269 2841 1825 2841 
Q 1466 2841 1156 2769 
Q 847 2697 581 2553 
L 581 3406 
Q 941 3494 1303 3539 
Q 1666 3584 2028 3584 
Q 2975 3584 3395 3211 
Q 3816 2838 3816 1997 
z
" transform="scale(0.015625)"/>
      <path id="DejaVuSans-Bold-69" d="M 538 3500 
L 1656 3500 
L 1656 0 
L 538 0 
L 538 3500 
z
M 538 4863 
L 1656 4863 
L 1656 3950 
L 538 3950 
L 538 4863 
z
" transform="scale(0.015625)"/>
      <path id="DejaVuSans-Bold-6e" d="M 4056 2131 
L 4056 0 
L 2931 0 
L 2931 347 
L 2931 1631 
Q 2931 2084 2911 2256 
Q 2891 2428 2841 2509 
Q 2775 2619 2662 2680 
Q 2550 2741 2406 2741 
Q 2056 2741 1856 2470 
Q 1656 2200 1656 1722 
L 1656 0 
L 538 0 
L 538 3500 
L 1656 3500 
L 1656 2988 
Q 1909 3294 2193 3439 
Q 2478 3584 2822 3584 
Q 3428 3584 3742 3212 
Q 4056 2841 4056 2131 
z
" transform="scale(0.015625)"/>
      <path id="DejaVuSans-Bold-20" transform="scale(0.015625)"/>
      <path id="DejaVuSans-Bold-2f" d="M 1644 4666 
L 2338 4666 
L 691 -594 
L 0 -594 
L 1644 4666 
z
" transform="scale(0.015625)"/>
      <path id="DejaVuSans-Bold-76" d="M 97 3500 
L 1216 3500 
L 2088 1081 
L 2956 3500 
L 4078 3500 
L 2700 0 
L 1472 0 
L 97 3500 
z
" transform="scale(0.015625)"/>
      <path id="DejaVuSans-Bold-6c" d="M 538 4863 
L 1656 4863 
L 1656 0 
L 538 0 
L 538 4863 
z
" transform="scale(0.015625)"/>
      <path id="DejaVuSans-Bold-64" d="M 2919 2988 
L 2919 4863 
L 4044 4863 
L 4044 0 
L 2919 0 
L 2919 506 
Q 2688 197 2409 53 
Q 2131 -91 1766 -91 
Q 1119 -91 703 423 
Q 288 938 288 1747 
Q 288 2556 703 3070 
Q 1119 3584 1766 3584 
Q 2128 3584 2408 3439 
Q 2688 3294 2919 2988 
z
M 2181 722 
Q 2541 722 2730 984 
Q 2919 1247 2919 1747 
Q 2919 2247 2730 2509 
Q 2541 2772 2181 2772 
Q 1825 2772 1636 2509 
Q 1447 2247 1447 1747 
Q 1447 1247 1636 984 
Q 1825 722 2181 722 
z
" transform="scale(0.015625)"/>
      <path id="DejaVuSans-Bold-74" d="M 1759 4494 
L 1759 3500 
L 2913 3500 
L 2913 2700 
L 1759 2700 
L 1759 1216 
Q 1759 972 1856 886 
Q 1953 800 2241 800 
L 2816 800 
L 2816 0 
L 1856 0 
Q 1194 0 917 276 
Q 641 553 641 1216 
L 641 2700 
L 84 2700 
L 84 3500 
L 641 3500 
L 641 4494 
L 1759 4494 
z
" transform="scale(0.015625)"/>
      <path id="DejaVuSans-Bold-6f" d="M 2203 2784 
Q 1831 2784 1636 2517 
Q 1441 2250 1441 1747 
Q 1441 1244 1636 976 
Q 1831 709 2203 709 
Q 2569 709 2762 976 
Q 2956 1244 2956 1747 
Q 2956 2250 2762 2517 
Q 2569 2784 2203 2784 
z
M 2203 3584 
Q 3106 3584 3614 3096 
Q 4122 2609 4122 1747 
Q 4122 884 3614 396 
Q 3106 -91 2203 -91 
Q 1297 -91 786 396 
Q 275 884 275 1747 
Q 275 2609 786 3096 
Q 1297 3584 2203 3584 
z
" transform="scale(0.015625)"/>
      <path id="DejaVuSans-Bold-73" d="M 3272 3391 
L 3272 2541 
Q 2913 2691 2578 2766 
Q 2244 2841 1947 2841 
Q 1628 2841 1473 2761 
Q 1319 2681 1319 2516 
Q 1319 2381 1436 2309 
Q 1553 2238 1856 2203 
L 2053 2175 
Q 2913 2066 3209 1816 
Q 3506 1566 3506 1031 
Q 3506 472 3093 190 
Q 2681 -91 1863 -91 
Q 1516 -91 1145 -36 
Q 775 19 384 128 
L 384 978 
Q 719 816 1070 734 
Q 1422 653 1784 653 
Q 2113 653 2278 743 
Q 2444 834 2444 1013 
Q 2444 1163 2330 1236 
Q 2216 1309 1875 1350 
L 1678 1375 
Q 931 1469 631 1722 
Q 331 1975 331 2491 
Q 331 3047 712 3315 
Q 1094 3584 1881 3584 
Q 2191 3584 2531 3537 
Q 2872 3491 3272 3391 
z
" transform="scale(0.015625)"/>
     </defs>
     <use xlink:href="#DejaVuSans-Bold-54"/>
     <use xlink:href="#DejaVuSans-Bold-72" transform="translate(57.212891 0)"/>
     <use xlink:href="#DejaVuSans-Bold-61" transform="translate(106.529297 0)"/>
     <use xlink:href="#DejaVuSans-Bold-69" transform="translate(174.009766 0)"/>
     <use xlink:href="#DejaVuSans-Bold-6e" transform="translate(208.287109 0)"/>
     <use xlink:href="#DejaVuSans-Bold-20" transform="translate(279.478516 0)"/>
     <use xlink:href="#DejaVuSans-Bold-2f" transform="translate(314.292969 0)"/>
     <use xlink:href="#DejaVuSans-Bold-20" transform="translate(350.816406 0)"/>
     <use xlink:href="#DejaVuSans-Bold-76" transform="translate(385.630859 0)"/>
     <use xlink:href="#DejaVuSans-Bold-61" transform="translate(450.816406 0)"/>
     <use xlink:href="#DejaVuSans-Bold-6c" transform="translate(518.296875 0)"/>
     <use xlink:href="#DejaVuSans-Bold-69" transform="translate(552.574219 0)"/>
     <use xlink:href="#DejaVuSans-Bold-64" transform="translate(586.851562 0)"/>
     <use xlink:href="#DejaVuSans-Bold-61" transform="translate(658.433594 0)"/>
     <use xlink:href="#DejaVuSans-Bold-74" transform="translate(725.914062 0)"/>
     <use xlink:href="#DejaVuSans-Bold-69" transform="translate(773.716797 0)"/>
     <use xlink:href="#DejaVuSans-Bold-6f" transform="translate(807.994141 0)"/>
     <use xlink:href="#DejaVuSans-Bold-6e" transform="translate(876.695312 0)"/>
     <use xlink:href="#DejaVuSans-Bold-20" transform="translate(947.886719 0)"/>
     <use xlink:href="#DejaVuSans-Bold-6c" transform="translate(982.701172 0)"/>
     <use xlink:href="#DejaVuSans-Bold-6f" transform="translate(1016.978516 0)"/>
     <use xlink:href="#DejaVuSans-Bold-73" transform="translate(1085.679688 0)"/>
     <use xlink:href="#DejaVuSans-Bold-73" transform="translate(1145.201172 0)"/>
    </g>
   </g>
   <g id="legend_1">
    <g id="line2d_26">
     <path d="M 550.333438 35.731328 
L 558.833438 35.731328 
L 567.333438 35.731328 
" style="fill: none; stroke-dasharray: 5.55,2.4; stroke-dashoffset: 0; stroke: #b67524; stroke-opacity: 0.72; stroke-width: 1.5"/>
    </g>
    <g id="text_17">
     <!-- v train -->
     <g transform="translate(574.133438 38.706328) scale(0.085 -0.085)">
      <defs>
       <path id="DejaVuSans-76" d="M 191 3500 
L 800 3500 
L 1894 563 
L 2988 3500 
L 3597 3500 
L 2284 0 
L 1503 0 
L 191 3500 
z
" transform="scale(0.015625)"/>
       <path id="DejaVuSans-61" d="M 2194 1759 
Q 1497 1759 1228 1600 
Q 959 1441 959 1056 
Q 959 750 1161 570 
Q 1363 391 1709 391 
Q 2188 391 2477 730 
Q 2766 1069 2766 1631 
L 2766 1759 
L 2194 1759 
z
M 3341 1997 
L 3341 0 
L 2766 0 
L 2766 531 
Q 2569 213 2275 61 
Q 1981 -91 1556 -91 
Q 1019 -91 701 211 
Q 384 513 384 1019 
Q 384 1609 779 1909 
Q 1175 2209 1959 2209 
L 2766 2209 
L 2766 2266 
Q 2766 2663 2505 2880 
Q 2244 3097 1772 3097 
Q 1472 3097 1187 3025 
Q 903 2953 641 2809 
L 641 3341 
Q 956 3463 1253 3523 
Q 1550 3584 1831 3584 
Q 2591 3584 2966 3190 
Q 3341 2797 3341 1997 
z
" transform="scale(0.015625)"/>
       <path id="DejaVuSans-69" d="M 603 3500 
L 1178 3500 
L 1178 0 
L 603 0 
L 603 3500 
z
M 603 4863 
L 1178 4863 
L 1178 4134 
L 603 4134 
L 603 4863 
z
" transform="scale(0.015625)"/>
      </defs>
      <use xlink:href="#DejaVuSans-76"/>
      <use xlink:href="#DejaVuSans-20" transform="translate(59.179688 0)"/>
      <use xlink:href="#DejaVuSans-74" transform="translate(90.966797 0)"/>
      <use xlink:href="#DejaVuSans-72" transform="translate(130.175781 0)"/>
      <use xlink:href="#DejaVuSans-61" transform="translate(171.289062 0)"/>
      <use xlink:href="#DejaVuSans-69" transform="translate(232.568359 0)"/>
      <use xlink:href="#DejaVuSans-6e" transform="translate(260.351562 0)"/>
     </g>
    </g>
    <g id="line2d_27">
     <path d="M 550.333438 48.207734 
L 558.833438 48.207734 
L 567.333438 48.207734 
" style="fill: none; stroke: #b67524; stroke-width: 2.1; stroke-linecap: square"/>
    </g>
    <g id="text_18">
     <!-- v val -->
     <g transform="translate(574.133438 51.182734) scale(0.085 -0.085)">
      <use xlink:href="#DejaVuSans-76"/>
      <use xlink:href="#DejaVuSans-20" transform="translate(59.179688 0)"/>
      <use xlink:href="#DejaVuSans-76" transform="translate(90.966797 0)"/>
      <use xlink:href="#DejaVuSans-61" transform="translate(150.146484 0)"/>
      <use xlink:href="#DejaVuSans-6c" transform="translate(211.425781 0)"/>
     </g>
    </g>
    <g id="line2d_28">
     <path d="M 618.649531 35.731328 
L 627.149531 35.731328 
L 635.649531 35.731328 
" style="fill: none; stroke-dasharray: 5.55,2.4; stroke-dashoffset: 0; stroke: #c4493d; stroke-opacity: 0.72; stroke-width: 1.5"/>
    </g>
    <g id="text_19">
     <!-- y train -->
     <g transform="translate(642.449531 38.706328) scale(0.085 -0.085)">
      <use xlink:href="#DejaVuSans-79"/>
      <use xlink:href="#DejaVuSans-20" transform="translate(59.179688 0)"/>
      <use xlink:href="#DejaVuSans-74" transform="translate(90.966797 0)"/>
      <use xlink:href="#DejaVuSans-72" transform="translate(130.175781 0)"/>
      <use xlink:href="#DejaVuSans-61" transform="translate(171.289062 0)"/>
      <use xlink:href="#DejaVuSans-69" transform="translate(232.568359 0)"/>
      <use xlink:href="#DejaVuSans-6e" transform="translate(260.351562 0)"/>
     </g>
    </g>
    <g id="line2d_29">
     <path d="M 618.649531 48.207734 
L 627.149531 48.207734 
L 635.649531 48.207734 
" style="fill: none; stroke: #c4493d; stroke-width: 2.1; stroke-linecap: square"/>
    </g>
    <g id="text_20">
     <!-- y val -->
     <g transform="translate(642.449531 51.182734) scale(0.085 -0.085)">
      <use xlink:href="#DejaVuSans-79"/>
      <use xlink:href="#DejaVuSans-20" transform="translate(59.179688 0)"/>
      <use xlink:href="#DejaVuSans-76" transform="translate(90.966797 0)"/>
      <use xlink:href="#DejaVuSans-61" transform="translate(150.146484 0)"/>
      <use xlink:href="#DejaVuSans-6c" transform="translate(211.425781 0)"/>
     </g>
    </g>
    <g id="line2d_30">
     <path d="M 686.965625 35.731328 
L 695.465625 35.731328 
L 703.965625 35.731328 
" style="fill: none; stroke-dasharray: 5.55,2.4; stroke-dashoffset: 0; stroke: #2d6f9f; stroke-opacity: 0.72; stroke-width: 1.5"/>
    </g>
    <g id="text_21">
     <!-- input train -->
     <g transform="translate(710.765625 38.706328) scale(0.085 -0.085)">
      <defs>
       <path id="DejaVuSans-75" d="M 544 1381 
L 544 3500 
L 1119 3500 
L 1119 1403 
Q 1119 906 1312 657 
Q 1506 409 1894 409 
Q 2359 409 2629 706 
Q 2900 1003 2900 1516 
L 2900 3500 
L 3475 3500 
L 3475 0 
L 2900 0 
L 2900 538 
Q 2691 219 2414 64 
Q 2138 -91 1772 -91 
Q 1169 -91 856 284 
Q 544 659 544 1381 
z
M 1991 3584 
L 1991 3584 
z
" transform="scale(0.015625)"/>
      </defs>
      <use xlink:href="#DejaVuSans-69"/>
      <use xlink:href="#DejaVuSans-6e" transform="translate(27.783203 0)"/>
      <use xlink:href="#DejaVuSans-70" transform="translate(91.162109 0)"/>
      <use xlink:href="#DejaVuSans-75" transform="translate(154.638672 0)"/>
      <use xlink:href="#DejaVuSans-74" transform="translate(218.017578 0)"/>
      <use xlink:href="#DejaVuSans-20" transform="translate(257.226562 0)"/>
      <use xlink:href="#DejaVuSans-74" transform="translate(289.013672 0)"/>
      <use xlink:href="#DejaVuSans-72" transform="translate(328.222656 0)"/>
      <use xlink:href="#DejaVuSans-61" transform="translate(369.335938 0)"/>
      <use xlink:href="#DejaVuSans-69" transform="translate(430.615234 0)"/>
      <use xlink:href="#DejaVuSans-6e" transform="translate(458.398438 0)"/>
     </g>
    </g>
    <g id="line2d_31">
     <path d="M 686.965625 48.207734 
L 695.465625 48.207734 
L 703.965625 48.207734 
" style="fill: none; stroke: #2d6f9f; stroke-width: 2.1; stroke-linecap: square"/>
    </g>
    <g id="text_22">
     <!-- input val -->
     <g transform="translate(710.765625 51.182734) scale(0.085 -0.085)">
      <use xlink:href="#DejaVuSans-69"/>
      <use xlink:href="#DejaVuSans-6e" transform="translate(27.783203 0)"/>
      <use xlink:href="#DejaVuSans-70" transform="translate(91.162109 0)"/>
      <use xlink:href="#DejaVuSans-75" transform="translate(154.638672 0)"/>
      <use xlink:href="#DejaVuSans-74" transform="translate(218.017578 0)"/>
      <use xlink:href="#DejaVuSans-20" transform="translate(257.226562 0)"/>
      <use xlink:href="#DejaVuSans-76" transform="translate(289.013672 0)"/>
      <use xlink:href="#DejaVuSans-61" transform="translate(348.193359 0)"/>
      <use xlink:href="#DejaVuSans-6c" transform="translate(409.472656 0)"/>
     </g>
    </g>
   </g>
  </g>
 </g>
 <defs>
  <clipPath id="pc0af78e8cf">
   <rect x="33.604375" y="24.597656" width="729.16" height="312.04"/>
  </clipPath>
 </defs>
</svg>
